<svg width="528" height="312" viewBox="0 0 528 312" fill="none" xmlns="http://www.w3.org/2000/svg">
<g clip-path="url(#clip0_124_11)">
<path d="M142.247 70.1361C141.918 65.2706 140.865 57.7545 137.18 54.3069C135.059 52.3561 132.08 51.7444 129.282 51.7908C124.604 51.7166 120.377 54.2699 117.11 57.4441C115.75 58.7554 114.497 60.2105 113.328 61.7721L113.161 61.6933C115.151 56.0539 120.108 50.966 126.289 50.3126C132.205 49.6175 138.665 53.2736 141.514 58.4172C143.268 62.0223 143.491 66.3318 142.433 70.1686L142.247 70.1408V70.1361Z" fill="#2C89CA"/>
<path d="M113.286 65.5023C119.62 66.4245 126.247 68.3243 132.447 69.8628C134.553 70.4095 136.66 70.8868 138.86 71.5773V71.7626C132.205 71.7951 125.625 70.3122 119.365 68.1436C117.272 67.4207 115.212 66.6098 113.207 65.6691L113.286 65.5023Z" fill="#2C89CA"/>
<path d="M111.495 67.2446C116.404 68.9221 120.901 70.9378 125.857 72.2631C130.706 73.7135 135.663 74.3437 140.711 74.6912L140.744 74.8719C133.059 76.3594 125.068 74.6541 118.107 71.2668C115.778 70.1408 113.546 68.8248 111.393 67.3975L111.495 67.2446Z" fill="#2C89CA"/>
<path d="M104.07 78.3798C105.328 75.8126 108.001 76.137 110.158 77.3279C109.342 83.0785 110.316 91.6094 117.379 92.5501C123.435 93.3332 130.085 90.5343 135.407 87.8421L135.579 87.754H135.769C136.428 87.7401 138.02 87.7448 138.651 87.7355C141.774 87.8838 144.698 89.7836 146.368 92.3786C147.078 93.5046 147.626 94.8114 147.946 96.1088C148.127 96.6417 148.229 97.5129 148.331 98.0736C148.921 102.402 149.352 106.794 150.67 110.97L149.148 110.988C150.443 107.786 153.802 105.59 157.274 106.285L156.41 107.017L156.457 103.504V103.421C157.728 97.7956 159.144 92.2164 160.689 86.6697C162.629 80.238 169.279 54.9233 175.877 54.0012C180.119 53.2875 183.093 55.864 184.11 59.863C184.486 61.3226 184.75 62.8425 184.667 64.3671C180.671 75.4141 172.587 97.5731 168.499 108.583L168.151 107.545C168.434 107.731 168.615 107.883 168.829 108.069C170.239 109.306 171.195 111.058 171.427 112.925C171.729 114.992 171.023 117.003 170.392 118.898C169.13 122.55 167.622 126.057 165.979 129.551L166.077 129.111C166.044 131.474 164.879 133.842 162.717 134.95C160.652 135.988 158.341 135.788 156.178 135.367L157.38 134.505C156.689 138.694 153.283 139.477 149.844 137.563C147.877 136.729 147.765 134.551 148.577 132.897L148.596 132.841C148.596 132.869 148.559 132.869 148.605 133.129C148.647 133.379 148.911 133.657 149.143 133.726C149.222 133.75 149.246 133.754 149.283 133.759C149.408 133.773 149.413 133.759 149.394 133.763C147.793 134.255 145.974 134.695 144.266 134.028C142.113 133.231 140.786 131.289 139.881 129.347L140.707 129.885L112.395 129.12L112.711 129.051C110.789 129.76 108.966 129.069 107.601 128.078C103.727 124.95 102.427 119.945 101.049 115.413C99.2299 109.45 97.4109 103.389 94.4224 97.8882L94.5755 97.7863C96.26 100.465 97.4944 103.37 98.6916 106.28C99.861 109.199 100.933 112.16 101.903 115.154C103.314 119.399 104.692 124.222 108.344 127.054C109.346 127.735 110.516 128.166 111.708 127.92C111.95 127.86 112.084 127.818 112.261 127.73H112.423L140.744 128.031L141.319 128.036L141.565 128.569C142.684 131.029 144.559 133.008 147.278 132.341C147.849 132.23 148.424 131.993 149.074 131.859C149.204 131.822 149.547 131.813 149.779 131.901C150.099 131.984 150.429 132.355 150.494 132.688C150.591 133.346 150.401 133.485 150.243 133.953C150.011 134.574 149.886 135.311 150.433 135.659C153.459 137.267 155.232 136.947 155.552 133.258L156.605 133.439C160.48 134.306 163.965 133.462 164.128 128.893C165.794 125.455 167.362 121.905 168.638 118.305C169.204 116.623 169.873 114.918 169.641 113.152C169.441 111.266 168.235 109.566 166.62 108.611L166.866 107.976C171.037 97.0217 179.576 74.9832 183.845 64.0659L183.817 64.2002C183.845 62.8333 183.692 61.406 183.353 60.0668C182.755 57.4024 180.917 54.8445 178.021 54.5989C176.685 54.4831 175.27 54.5248 174.207 55.4979C172.095 57.3375 170.796 60.0066 169.562 62.4996C163.84 75.3492 160.67 90.3536 157.844 103.509C157.858 104.121 157.886 107.304 157.9 107.837C156.963 107.758 155.923 107.587 155.014 107.786C153.028 108.11 151.427 109.751 150.67 111.558L149.877 113.523L149.148 111.572C147.612 106.971 147.25 102.147 146.549 97.3924C146.522 97.1144 146.433 96.7808 146.354 96.512C146.197 95.8123 145.909 95.0662 145.64 94.4036C144.387 91.6511 141.668 89.4917 138.605 89.2693C137.978 89.2554 136.405 89.26 135.765 89.2508L136.122 89.1581C131.723 91.3777 127.087 93.1432 122.173 93.7409C111.086 95.145 108.135 86.9153 109.648 77.4345L109.769 77.6893C107.922 76.568 105.42 76.2111 104.237 78.4539L104.065 78.3844L104.07 78.3798Z" fill="#2C89CA"/>
<path d="M112.479 90.4554C119.026 93.6018 125.426 91.3081 132.085 90.1033L132.178 90.2655C127.644 92.8789 122.117 94.8715 116.892 93.3053C115.184 92.7816 113.56 91.9105 112.339 90.5759L112.483 90.4554H112.479Z" fill="#2C89CA"/>
<path d="M82.5703 127.04C83.1318 125.557 83.7768 124.106 84.5936 122.735C85.1412 122.026 85.4428 121.261 85.7212 120.372C86.4452 118.059 86.9602 115.617 87.661 113.235C89.1877 108.481 90.5427 103.667 91.1738 98.6898C91.8699 94.334 92.4361 89.9272 93.921 85.7429C95.5313 81.2249 99.1741 76.7532 104.223 76.1555C105.184 76.035 106.172 76.0489 107.114 76.2898L107.082 76.4706C105.239 76.4984 103.504 77.1193 101.949 78.0229C98.9189 79.932 97.007 83.1526 95.7819 86.4472C94.2412 90.4694 93.4848 94.7881 92.1669 98.8983C91.4616 101.299 90.8444 103.718 90.3664 106.169C89.5032 111.113 89.0531 116.178 87.0716 120.863C86.8257 121.465 86.5519 122.054 86.1435 122.647C85.763 123.152 85.3175 123.574 84.9509 124.102C84.2131 125.089 83.4938 126.117 82.7374 127.118L82.575 127.03L82.5703 127.04Z" fill="#2C89CA"/>
<path d="M132.414 169.736C133.305 171.302 133.732 173.044 133.695 174.819C133.639 175.7 133.379 176.58 133.351 177.442C133.268 178.744 133.616 180.051 133.778 181.348C133.913 183.091 133.931 184.856 133.537 186.566C133.254 187.868 132.855 189.119 132.205 190.315L132.024 190.287C131.3 186.394 132.071 182.572 132.762 178.749C132.92 177.437 132.47 176.186 132.149 174.935C131.968 174.096 131.968 173.248 131.959 172.396C131.973 171.538 132.015 170.677 132.233 169.773L132.414 169.745V169.736Z" fill="#2C89CA"/>
<path d="M128.813 146.993C128.182 145.848 127.89 144.625 127.727 143.36C127.653 142.554 127.894 141.659 127.69 140.862C127.491 139.801 126.502 138.74 125.699 138.323L125.24 137.475C125.189 135.251 125.607 133.031 126.725 131.071L126.911 131.09C127.56 133.244 127.472 135.506 126.929 137.66L126.47 136.812C127.755 137.674 127.695 139.403 128.256 140.682C128.799 141.863 129.593 143.017 129.491 144.384C129.495 145.251 129.375 146.122 129.003 146.984L128.818 146.993H128.813Z" fill="#2C89CA"/>
<path d="M84.4544 188.943C85.1088 191.839 85.2526 194.828 85.1041 197.803C85.0438 199.286 84.7746 200.801 84.7097 202.196C84.6679 203.646 84.6772 205.11 84.7236 206.579C85.1134 220.555 86.3524 234.54 86.422 248.539C86.3942 250.258 86.4545 252.427 86.2503 254.146C86.19 255.856 85.0856 256.625 83.401 256.199C79.7861 255.1 76.8486 252.566 73.7534 250.522C72.5701 249.781 71.4239 248.715 70.0688 248.358C67.5026 248.15 65.2473 249.966 62.7925 250.499C62.4908 250.568 62.1428 250.573 61.8505 250.499C61.8087 250.48 61.7669 250.462 61.7344 250.434C61.5674 250.272 61.5535 250.175 61.5024 250.073C61.0523 248.585 60.9734 247.144 60.7785 245.638C60.4583 242.7 60.2031 239.758 59.9664 236.82C59.0151 225.054 58.3933 213.275 57.906 201.487L58.138 202.066C56.6948 200.328 56.3236 198.28 55.9709 196.2C55.6786 194.406 55.5625 191.7 55.6275 190.389C55.4233 187.664 55.2052 184.346 55.4373 181.608C55.6832 177.771 56.4674 173.8 58.3793 170.426C59.8225 168.03 61.9525 165.788 64.774 165.111C74.9089 161.891 83.4242 164.652 85.3965 176.464C85.8744 179.434 85.944 182.446 85.596 185.412L85.4104 185.393C85.5357 182.442 85.3269 179.462 84.6911 176.603C82.3801 165.936 74.9924 163.36 65.1731 166.724C62.8574 167.363 61.1544 169.319 59.9896 171.348C58.9455 173.23 58.268 175.445 57.8828 177.567C57.7807 178.401 57.5997 179.23 57.5301 180.055C57.4698 181.089 57.3352 182.409 57.3399 183.419C57.3491 184.457 57.3027 185.797 57.3723 186.807L57.5951 190.199V190.278V190.329C57.5997 193.503 57.5626 198.637 59.7251 201.093L59.7344 201.417C60.0871 211.825 60.4537 226.496 60.9084 236.75C61.094 240.425 61.2472 244.1 61.6741 247.751C61.7716 248.502 61.8737 249.364 62.0964 249.966C62.0825 249.952 62.0639 249.938 62.0407 249.934C62.0222 249.934 62.05 249.934 62.05 249.934L62.101 249.938C62.2867 249.971 62.4816 249.952 62.6718 249.915C63.7252 249.683 64.7183 249.206 65.7346 248.803C67.433 248.187 69.5259 247.135 71.2707 248.201C73.2801 249.174 83.9672 257.464 85.0345 254.711C85.2387 253.428 85.1552 252.07 85.1366 250.754C84.538 236.032 83.466 221.324 83.5449 206.57C83.5542 205.092 83.6145 203.609 83.7212 202.117C83.8604 200.569 84.1946 199.188 84.3431 197.729C84.6633 194.833 84.6586 191.876 84.2595 188.971L84.4405 188.934L84.4544 188.943Z" fill="#2C89CA"/>
<path d="M62.9085 252.987C60.4583 254.447 57.8828 255.68 55.6692 257.413C55.1959 257.83 54.6669 258.242 54.5462 258.798C54.5509 258.752 54.5091 258.687 54.5091 258.687C54.9732 259.123 55.8549 259.456 56.5185 259.73C60.9594 261.592 65.8552 261.81 70.6117 261.806C75.359 261.912 80.1155 261.986 84.8442 261.741C85.7816 261.685 86.7051 261.579 87.6053 261.416L87.1506 262.148C87.0206 260.934 86.8628 259.577 86.7468 258.353C86.7004 257.932 86.6679 257.505 86.603 257.093L86.7793 257.033C87.1506 257.825 87.4058 258.641 87.6796 259.452C87.9905 260.434 88.2782 261.435 88.5427 262.436C84.5983 263.868 80.3986 263.993 76.2824 263.803C72.403 263.654 68.5699 263.038 64.7739 262.297C62.8713 261.963 60.9734 261.671 59.0475 261.435C57.3213 261.18 55.5115 261.055 53.9105 260.244C53.1634 259.873 52.6436 259.09 52.987 258.126C53.7341 256.319 55.6924 255.457 57.2841 254.637C59.0754 253.826 60.9177 253.191 62.8389 252.807L62.9038 252.983L62.9085 252.987Z" fill="#2C89CA"/>
<path d="M148.364 249.345C148.364 249.345 148.368 249.308 148.364 249.299C148.359 249.29 148.373 249.308 148.377 249.308L148.424 249.345L148.517 249.419L148.698 249.563C151.38 251.834 156.303 256.403 154.661 260.276C152.122 265.156 142.428 262.686 138.215 261.435C136.776 260.434 133.416 258.062 132.029 257.093C128.414 254.651 126.219 250.425 125.527 246.241C125.258 244.165 124.827 242.269 124.21 240.295C122.831 235.991 121.138 231.792 119.267 227.673C115.648 219.36 110.191 211.603 108.822 202.474C108.645 200.894 108.724 199.022 109.815 197.72C110.511 196.946 111.332 196.274 112.163 195.704C116.692 192.521 129.11 187.155 134.085 190.876C134.409 191.144 134.799 191.617 135.045 191.978C137.296 195.065 138.939 198.526 140.349 202.011C143.519 209.726 144.962 217.979 146.238 226.158C146.865 229.369 147.756 232.511 148.823 235.611C150.261 240.119 153.519 245.99 148.359 249.35L148.364 249.345ZM148.178 249.345C151.222 246.653 151.013 244.118 149.63 240.573C148.466 237.497 147.111 234.447 146.104 231.292C144.039 224.999 143.519 218.34 141.625 212.015C139.741 205.417 137.365 198.776 133.505 193.09C132.976 192.205 132.177 191.747 131.059 191.566C125.449 190.746 115.36 194.592 111.091 198.304C108.576 200.495 110.682 206.7 111.564 209.471C113.638 215.736 117.054 221.44 119.834 227.409C121.964 231.88 124.14 236.398 125.727 241.106C126.275 242.64 126.664 244.41 126.952 245.972C127.769 249.772 129.723 253.516 132.985 255.735C134.298 256.69 137.672 259.1 139.017 260.077L138.813 259.971C141.083 260.721 143.472 261.319 145.853 261.634C148.09 261.898 150.693 262.107 152.651 260.939C156.679 258.168 150.809 252.005 148.54 249.73L148.373 249.572L148.289 249.494C148.243 249.452 148.183 249.406 148.173 249.345H148.178Z" fill="#2C89CA"/>
<path d="M146.368 247.784C145.013 247.394 143.983 247.436 142.674 247.566C142.215 247.612 141.677 247.612 141.208 247.76C140.377 248.034 139.746 248.664 139.31 249.424C138.187 251.287 136.809 253.066 134.776 254.035C134.048 254.419 132.836 254.628 132.377 253.752L132.484 253.599C132.813 253.659 133.073 253.655 133.314 253.451C134.98 251.769 136.461 249.947 138.595 248.706C140.02 247.96 140.948 246.792 142.284 246.069C143.816 245.462 145.881 246.125 146.503 247.654L146.368 247.784Z" fill="#2C89CA"/>
<path d="M113.337 97.675C114.646 100.46 115.588 103.351 116.386 106.303C116.98 108.532 117.379 110.812 117.346 113.138C117.3 113.138 117.425 113.356 117.583 113.495C119.532 115.024 122.117 115.562 124.516 116.099C127.894 116.757 132.957 117.721 136.391 118.347C140.336 119.051 144.252 120.098 148.266 120.223L148.303 120.404C147.315 120.747 146.266 120.854 145.236 120.923C142.155 121.09 139.069 120.775 136.038 120.297C132.02 119.575 128.043 118.546 124.233 117.077C122.326 116.331 120.418 115.645 118.52 114.834C117.792 114.463 116.725 114.172 116.465 113.249C116.288 112.021 115.857 110.84 115.523 109.626C114.97 107.689 114.548 105.719 114.135 103.745C113.736 101.762 113.36 99.7742 113.151 97.7307L113.328 97.6797L113.337 97.675Z" fill="#2C89CA"/>
<path d="M167.45 152.744C165.561 144.009 164.791 137.457 168.494 134.713C169.97 133.624 172.044 133.212 173.859 133.74C176.657 134.556 178.949 137.633 180.657 142.29C179.191 144.917 177.316 147.211 174.959 149.046C172.717 150.788 170.202 151.993 167.455 152.744H167.45Z" fill="#00AEEF"/>
<path d="M178.397 209.61C172.178 230.481 161.487 245.949 159.756 245.147C157.505 244.1 175.965 218.016 173.069 182.729C172.828 179.759 172.438 176.835 171.97 173.976C176.568 172.034 180.712 169.541 184.239 166.432C184.462 179.787 182.634 195.389 178.397 209.61Z" fill="#00AEEF"/>
<path d="M166.545 218.887C162.898 233.808 155.515 245.235 154.141 244.776C152.35 244.183 165.13 224.892 160.986 200.458C159.589 192.215 156.466 184.569 154.624 178.577C158.689 178.003 162.605 177.159 166.304 176.024C169.659 186.487 170.281 203.614 166.545 218.887Z" fill="#00AEEF"/>
<path d="M151.983 239.132C150.456 238.984 158.006 222.552 151.199 205.092C146.86 193.962 137.862 185.431 141.542 181.441C142.284 180.635 143.495 180.069 144.679 180.028C152.039 179.768 159.57 199.582 158.294 217.863C157.477 229.549 153.157 239.248 151.983 239.137V239.132Z" fill="#00AEEF"/>
<path d="M183.051 90.0386C180.1 90.4093 194.026 137.016 174.615 150.793C149.291 168.763 89.2941 115.214 70.3979 133.921C70.1195 134.199 66.0869 138.305 66.5973 143.453C68.8758 166.478 160.429 195.296 187.511 161.599C206.978 137.378 186.063 89.6632 183.051 90.0386Z" fill="url(#paint0_linear_124_11)"/>
<path d="M153.969 151.395C156.912 151.395 159.297 149.013 159.297 146.075C159.297 143.138 156.912 140.756 153.969 140.756C151.027 140.756 148.642 143.138 148.642 146.075C148.642 149.013 151.027 151.395 153.969 151.395Z" fill="#00AEEF"/>
<path d="M50.3649 139.241C58.7046 139.241 65.4652 132.49 65.4652 124.162C65.4652 115.834 58.7046 109.083 50.3649 109.083C42.0253 109.083 35.2646 115.834 35.2646 124.162C35.2646 132.49 42.0253 139.241 50.3649 139.241Z" fill="url(#paint1_linear_124_11)"/>
<path d="M43.6548 122.526C43.6548 122.526 49.7107 133.045 58.6576 134.139L43.6548 122.526Z" fill="#D12927"/>
<path d="M43.6733 122.517C47.5296 127.563 52.2351 132.637 58.6576 134.12L58.6529 134.167C52.2351 133.328 46.7639 127.804 43.6733 122.517Z" fill="#F9F9FA"/>
<path d="M42.2578 116.966C42.2578 116.966 49.1536 130.154 60.0542 131.938L42.2578 116.966Z" fill="#D12927"/>
<path d="M42.2764 116.957C46.6431 123.398 52.2164 129.899 60.0542 131.915L60.0449 131.961C52.2628 130.636 45.8124 123.555 42.2764 116.957Z" fill="#F9F9FA"/>
<path d="M49.9146 122.526C49.9146 122.526 55.2233 129.927 61.9799 130.075L49.9146 122.526Z" fill="#D12927"/>
<path d="M49.9331 122.512C53.2789 125.9 57.1352 129.278 61.9799 130.052V130.098C57.0749 129.894 52.6385 126.27 49.9331 122.512Z" fill="#F9F9FA"/>
<path d="M87.7534 194.536C89.5215 192.516 91.4426 190.662 93.4845 188.925C95.5959 187.28 97.6934 185.621 99.5357 183.67L99.6796 183.526C101.898 185.217 104.032 187.006 106.125 188.841C108.135 190.662 110.093 192.534 111.921 194.536L111.861 194.606C108.538 192.261 105.425 189.643 102.464 186.858C101.462 185.95 100.496 185 99.5404 184.04H99.8698C96.6447 186.455 94.162 189.666 91.0064 192.159C89.9762 193.007 88.9275 193.846 87.8184 194.606L87.7581 194.536H87.7534Z" fill="#2C89CA"/>
</g>
<path d="M380 231L216 242.5L380 255V231Z" fill="#0370BF"/>
<path d="M518 228.5H505.5L496 256.5H509L518 228.5Z" fill="#2194E8"/>
<path d="M234.378 96.26C233.875 96.26 233.477 96.1733 233.182 96C232.887 95.8093 232.74 95.5147 232.74 95.116C232.723 93.3133 232.35 91.788 231.622 90.54C230.911 89.292 229.707 88.1827 228.008 87.212L225.044 89.344L224.108 94.7C224.021 95.1853 223.787 95.5667 223.406 95.844C223.025 96.1213 222.583 96.26 222.08 96.26C221.629 96.26 221.274 96.156 221.014 95.948C220.754 95.7227 220.624 95.4193 220.624 95.038C220.624 94.8993 220.633 94.7867 220.65 94.7L223.406 79.1C223.493 78.6147 223.709 78.2333 224.056 77.956C224.42 77.6787 224.862 77.54 225.382 77.54C225.833 77.54 226.197 77.6527 226.474 77.878C226.751 78.086 226.89 78.3893 226.89 78.788C226.89 78.9267 226.881 79.0307 226.864 79.1L225.72 85.574L235.756 78.008C236.137 77.7133 236.536 77.566 236.952 77.566C237.368 77.566 237.697 77.7307 237.94 78.06C238.148 78.3373 238.252 78.6147 238.252 78.892C238.252 79.3253 237.983 79.75 237.446 80.166L230.504 85.366C232.393 86.4927 233.815 87.888 234.768 89.552C235.739 91.216 236.181 92.8973 236.094 94.596C236.077 95.0293 235.895 95.4193 235.548 95.766C235.201 96.0953 234.811 96.26 234.378 96.26ZM242.883 96C241.739 96 240.864 95.74 240.257 95.22C239.651 94.7 239.347 93.9547 239.347 92.984C239.347 92.6893 239.373 92.3773 239.425 92.048L241.245 81.648C241.488 80.4 241.982 79.4467 242.727 78.788C243.473 78.1293 244.452 77.8 245.665 77.8H253.985C254.436 77.8 254.783 77.8953 255.025 78.086C255.268 78.2593 255.389 78.5193 255.389 78.866C255.389 79.3513 255.216 79.7413 254.869 80.036C254.523 80.3307 254.072 80.478 253.517 80.478H246.029C245.683 80.478 245.388 80.5907 245.145 80.816C244.92 81.0413 244.773 81.3533 244.703 81.752L244.053 85.366H250.683C251.134 85.366 251.481 85.4613 251.723 85.652C251.966 85.8253 252.087 86.0853 252.087 86.432C252.087 86.9173 251.914 87.3073 251.567 87.602C251.221 87.8967 250.77 88.044 250.215 88.044H243.585L242.883 92.048C242.866 92.1347 242.857 92.256 242.857 92.412C242.857 92.7067 242.935 92.932 243.091 93.088C243.247 93.244 243.473 93.322 243.767 93.322H251.827C252.278 93.322 252.625 93.4173 252.867 93.608C253.11 93.7813 253.231 94.0413 253.231 94.388C253.231 94.8733 253.058 95.2633 252.711 95.558C252.365 95.8527 251.914 96 251.359 96H242.883ZM273.142 77.54C273.61 77.54 273.974 77.6527 274.234 77.878C274.494 78.086 274.624 78.3893 274.624 78.788C274.624 78.9267 274.616 79.0307 274.598 79.1L274.104 81.83C273.671 84.3087 272.77 86.25 271.4 87.654C270.048 89.058 268.263 89.89 266.044 90.15L265.238 94.7C265.152 95.168 264.918 95.5493 264.536 95.844C264.172 96.1213 263.73 96.26 263.21 96.26C262.76 96.26 262.404 96.156 262.144 95.948C261.884 95.7227 261.754 95.4193 261.754 95.038C261.754 94.8993 261.763 94.7867 261.78 94.7L262.586 90.072C260.87 89.76 259.544 89.058 258.608 87.966C257.69 86.8567 257.23 85.4353 257.23 83.702C257.23 83.2167 257.291 82.5927 257.412 81.83L257.906 79.1C257.993 78.6147 258.21 78.2333 258.556 77.956C258.903 77.6787 259.345 77.54 259.882 77.54C260.35 77.54 260.714 77.6527 260.974 77.878C261.252 78.1033 261.39 78.4153 261.39 78.814C261.39 78.9353 261.382 79.0307 261.364 79.1L260.87 81.908C260.749 82.5667 260.688 83.1907 260.688 83.78C260.688 85.0453 261.018 85.9813 261.676 86.588C262.352 87.1947 263.384 87.498 264.77 87.498C266.348 87.498 267.639 87.0213 268.644 86.068C269.65 85.0973 270.317 83.7107 270.646 81.908L271.14 79.1C271.21 78.632 271.426 78.2593 271.79 77.982C272.172 77.6873 272.622 77.54 273.142 77.54ZM283.417 96.26C282.047 96.26 280.999 95.8267 280.271 94.96C279.543 94.076 279.04 92.6373 278.763 90.644L277.255 79.334C277.237 79.2647 277.229 79.1607 277.229 79.022C277.229 78.5367 277.385 78.1727 277.697 77.93C278.026 77.67 278.485 77.54 279.075 77.54C279.595 77.54 279.976 77.644 280.219 77.852C280.479 78.06 280.643 78.398 280.713 78.866L282.195 90.566C282.333 91.6753 282.498 92.4553 282.689 92.906C282.879 93.3393 283.148 93.556 283.495 93.556C283.824 93.556 284.162 93.3393 284.509 92.906C284.855 92.4553 285.297 91.6753 285.835 90.566L291.425 78.866C291.65 78.398 291.927 78.06 292.257 77.852C292.586 77.644 293.011 77.54 293.531 77.54C294.484 77.54 294.961 77.8433 294.961 78.45C294.961 78.6927 294.883 78.9873 294.727 79.334L289.137 90.826C288.461 92.23 287.845 93.3133 287.291 94.076C286.753 94.8387 286.181 95.3933 285.575 95.74C284.968 96.0867 284.249 96.26 283.417 96.26ZM295.126 96.234C294.676 96.234 294.32 96.13 294.06 95.922C293.8 95.6967 293.67 95.3933 293.67 95.012C293.67 94.8733 293.679 94.7607 293.696 94.674L295.308 85.574C295.759 82.974 296.799 80.9893 298.428 79.62C300.075 78.2333 302.198 77.54 304.798 77.54C306.982 77.54 308.69 78.112 309.92 79.256C311.168 80.3827 311.792 81.9253 311.792 83.884C311.792 84.4387 311.74 85.002 311.636 85.574L310.024 94.674C309.938 95.1593 309.712 95.5407 309.348 95.818C308.984 96.0953 308.542 96.234 308.022 96.234C307.572 96.234 307.208 96.1213 306.93 95.896C306.67 95.6707 306.54 95.3673 306.54 94.986C306.54 94.8473 306.549 94.7433 306.566 94.674L307.32 90.436H297.908L297.154 94.674C297.068 95.142 296.834 95.5233 296.452 95.818C296.088 96.0953 295.646 96.234 295.126 96.234ZM307.788 87.758L308.178 85.496C308.3 84.768 308.36 84.2047 308.36 83.806C308.36 82.61 308.031 81.726 307.372 81.154C306.731 80.5647 305.743 80.27 304.408 80.27C301.271 80.27 299.39 82.012 298.766 85.496L298.376 87.758H307.788ZM316.947 96C315.803 96 314.928 95.74 314.321 95.22C313.714 94.7 313.411 93.9547 313.411 92.984C313.411 92.6893 313.437 92.3773 313.489 92.048L315.777 79.1C315.864 78.6147 316.08 78.2333 316.427 77.956C316.774 77.6787 317.216 77.54 317.753 77.54C318.221 77.54 318.585 77.6527 318.845 77.878C319.122 78.1033 319.261 78.4153 319.261 78.814C319.261 78.9353 319.252 79.0307 319.235 79.1L316.947 92.048C316.93 92.1347 316.921 92.256 316.921 92.412C316.921 92.7067 316.999 92.932 317.155 93.088C317.311 93.244 317.536 93.322 317.831 93.322H326.151C326.602 93.322 326.948 93.4173 327.191 93.608C327.434 93.7813 327.555 94.0413 327.555 94.388C327.555 94.8733 327.382 95.2633 327.035 95.558C326.688 95.8527 326.238 96 325.683 96H316.947ZM337.059 96.26C335.551 96.26 334.234 95.9913 333.107 95.454C331.98 94.8993 331.105 94.128 330.481 93.14C329.874 92.152 329.571 91.008 329.571 89.708C329.571 89.188 329.623 88.6593 329.727 88.122L331.339 79.1C331.426 78.6147 331.642 78.2333 331.989 77.956C332.336 77.6787 332.769 77.54 333.289 77.54C333.774 77.54 334.147 77.6527 334.407 77.878C334.684 78.1033 334.823 78.4153 334.823 78.814C334.823 78.9353 334.814 79.0307 334.797 79.1L333.185 88.2C333.081 88.7893 333.029 89.3353 333.029 89.838C333.029 92.2993 334.346 93.53 336.981 93.53C338.506 93.53 339.754 93.0707 340.725 92.152C341.713 91.216 342.354 89.8987 342.649 88.2L344.261 79.1C344.33 78.632 344.547 78.2593 344.911 77.982C345.292 77.6873 345.743 77.54 346.263 77.54C346.731 77.54 347.095 77.6527 347.355 77.878C347.615 78.086 347.745 78.3893 347.745 78.788C347.745 78.9267 347.736 79.0307 347.719 79.1L346.107 88.356C345.656 90.956 344.66 92.9233 343.117 94.258C341.592 95.5927 339.572 96.26 337.059 96.26ZM351.911 96C350.767 96 349.891 95.74 349.285 95.22C348.678 94.7 348.375 93.9547 348.375 92.984C348.375 92.6893 348.401 92.3773 348.453 92.048L350.273 81.648C350.515 80.4 351.009 79.4467 351.755 78.788C352.5 78.1293 353.479 77.8 354.693 77.8H363.013C363.463 77.8 363.81 77.8953 364.053 78.086C364.295 78.2593 364.417 78.5193 364.417 78.866C364.417 79.3513 364.243 79.7413 363.897 80.036C363.55 80.3307 363.099 80.478 362.545 80.478H355.057C354.71 80.478 354.415 80.5907 354.173 80.816C353.947 81.0413 353.8 81.3533 353.731 81.752L353.081 85.366H359.711C360.161 85.366 360.508 85.4613 360.751 85.652C360.993 85.8253 361.115 86.0853 361.115 86.432C361.115 86.9173 360.941 87.3073 360.595 87.602C360.248 87.8967 359.797 88.044 359.243 88.044H352.613L351.911 92.048C351.893 92.1347 351.885 92.256 351.885 92.412C351.885 92.7067 351.963 92.932 352.119 93.088C352.275 93.244 352.5 93.322 352.795 93.322H360.855C361.305 93.322 361.652 93.4173 361.895 93.608C362.137 93.7813 362.259 94.0413 362.259 94.388C362.259 94.8733 362.085 95.2633 361.739 95.558C361.392 95.8527 360.941 96 360.387 96H351.911ZM222.21 121.26C221.742 121.26 221.361 121.139 221.066 120.896C220.789 120.653 220.65 120.341 220.65 119.96C220.65 119.839 220.659 119.752 220.676 119.7L222.964 106.648C223.172 105.435 223.683 104.49 224.498 103.814C225.33 103.138 226.37 102.8 227.618 102.8H232.012C234.473 102.8 236.267 103.216 237.394 104.048C238.521 104.863 239.084 106.163 239.084 107.948C239.084 109.473 238.72 110.825 237.992 112.004C237.264 113.165 236.233 114.075 234.898 114.734C233.581 115.375 232.064 115.696 230.348 115.696H224.836L224.134 119.7C224.047 120.185 223.831 120.567 223.484 120.844C223.137 121.121 222.713 121.26 222.21 121.26ZM230.348 113.018C231.925 113.018 233.191 112.585 234.144 111.718C235.097 110.834 235.574 109.664 235.574 108.208C235.574 107.203 235.297 106.501 234.742 106.102C234.205 105.686 233.26 105.478 231.908 105.478H227.748C227.401 105.478 227.107 105.591 226.864 105.816C226.639 106.041 226.491 106.353 226.422 106.752L225.304 113.018H230.348ZM242.286 106.648C242.72 104.083 244.271 102.8 246.94 102.8H251.568C253.7 102.8 255.373 103.216 256.586 104.048C257.817 104.863 258.432 106.041 258.432 107.584C258.432 108.936 258.103 110.158 257.444 111.25C256.803 112.325 255.928 113.174 254.818 113.798C253.726 114.405 252.522 114.708 251.204 114.708L254.454 118.634C254.662 118.859 254.766 119.137 254.766 119.466C254.766 119.709 254.697 119.951 254.558 120.194C254.437 120.419 254.255 120.619 254.012 120.792C253.579 121.087 253.172 121.234 252.79 121.234C252.27 121.234 251.837 121.009 251.49 120.558L246.888 114.812H244.288L243.43 119.7C243.344 120.185 243.11 120.567 242.728 120.844C242.347 121.121 241.905 121.26 241.402 121.26C240.952 121.26 240.596 121.156 240.336 120.948C240.076 120.723 239.946 120.419 239.946 120.038C239.946 119.899 239.955 119.787 239.972 119.7L242.286 106.648ZM249.8 112.134C251.499 112.134 252.773 111.822 253.622 111.198C254.472 110.574 254.896 109.499 254.896 107.974C254.896 107.038 254.55 106.388 253.856 106.024C253.163 105.66 252.21 105.478 250.996 105.478H247.07C246.706 105.478 246.412 105.591 246.186 105.816C245.961 106.041 245.805 106.353 245.718 106.752L244.756 112.134H249.8ZM263.221 121C262.077 121 261.202 120.74 260.595 120.22C259.988 119.7 259.685 118.955 259.685 117.984C259.685 117.689 259.711 117.377 259.763 117.048L261.583 106.648C261.826 105.4 262.32 104.447 263.065 103.788C263.81 103.129 264.79 102.8 266.003 102.8H274.323C274.774 102.8 275.12 102.895 275.363 103.086C275.606 103.259 275.727 103.519 275.727 103.866C275.727 104.351 275.554 104.741 275.207 105.036C274.86 105.331 274.41 105.478 273.855 105.478H266.367C266.02 105.478 265.726 105.591 265.483 105.816C265.258 106.041 265.11 106.353 265.041 106.752L264.391 110.366H271.021C271.472 110.366 271.818 110.461 272.061 110.652C272.304 110.825 272.425 111.085 272.425 111.432C272.425 111.917 272.252 112.307 271.905 112.602C271.558 112.897 271.108 113.044 270.553 113.044H263.923L263.221 117.048C263.204 117.135 263.195 117.256 263.195 117.412C263.195 117.707 263.273 117.932 263.429 118.088C263.585 118.244 263.81 118.322 264.105 118.322H272.165C272.616 118.322 272.962 118.417 273.205 118.608C273.448 118.781 273.569 119.041 273.569 119.388C273.569 119.873 273.396 120.263 273.049 120.558C272.702 120.853 272.252 121 271.697 121H263.221ZM277.838 121.26C277.388 121.26 277.032 121.156 276.772 120.948C276.512 120.723 276.382 120.419 276.382 120.038C276.382 119.899 276.391 119.787 276.408 119.7L278.28 108.988C278.662 106.873 279.485 105.27 280.75 104.178C282.016 103.086 283.688 102.54 285.768 102.54C286.739 102.54 287.606 102.774 288.368 103.242C289.148 103.71 289.781 104.395 290.266 105.296C291.029 104.412 291.878 103.736 292.814 103.268C293.75 102.783 294.721 102.54 295.726 102.54C297.442 102.54 298.794 102.999 299.782 103.918C300.77 104.819 301.264 106.05 301.264 107.61C301.264 108.009 301.221 108.468 301.134 108.988L299.262 119.7C299.176 120.168 298.942 120.549 298.56 120.844C298.196 121.121 297.754 121.26 297.234 121.26C296.784 121.26 296.428 121.156 296.168 120.948C295.908 120.723 295.778 120.419 295.778 120.038C295.778 119.899 295.787 119.787 295.804 119.7L297.676 108.988C297.763 108.555 297.806 108.095 297.806 107.61C297.806 106.795 297.598 106.206 297.182 105.842C296.766 105.461 296.116 105.27 295.232 105.27C294.227 105.27 293.395 105.591 292.736 106.232C292.078 106.873 291.636 107.792 291.41 108.988L289.538 119.7C289.452 120.185 289.226 120.567 288.862 120.844C288.498 121.121 288.056 121.26 287.536 121.26C287.086 121.26 286.73 121.156 286.47 120.948C286.228 120.723 286.106 120.419 286.106 120.038C286.106 119.899 286.115 119.787 286.132 119.7L288.004 108.988C288.074 108.659 288.108 108.312 288.108 107.948C288.108 107.099 287.883 106.44 287.432 105.972C286.999 105.504 286.366 105.27 285.534 105.27C284.408 105.27 283.55 105.565 282.96 106.154C282.371 106.726 281.964 107.671 281.738 108.988L279.866 119.7C279.78 120.168 279.546 120.549 279.164 120.844C278.8 121.121 278.358 121.26 277.838 121.26ZM304.592 121.26C304.142 121.26 303.786 121.156 303.526 120.948C303.266 120.723 303.136 120.419 303.136 120.038C303.136 119.899 303.145 119.787 303.162 119.7L305.918 104.1C305.988 103.615 306.204 103.233 306.568 102.956C306.932 102.679 307.374 102.54 307.894 102.54C308.345 102.54 308.709 102.653 308.986 102.878C309.264 103.103 309.402 103.415 309.402 103.814C309.402 103.935 309.394 104.031 309.376 104.1L306.62 119.7C306.534 120.185 306.3 120.567 305.918 120.844C305.537 121.121 305.095 121.26 304.592 121.26ZM314.485 121C313.341 121 312.465 120.74 311.859 120.22C311.252 119.7 310.949 118.955 310.949 117.984C310.949 117.689 310.975 117.377 311.027 117.048L312.847 106.648C313.089 105.4 313.583 104.447 314.329 103.788C315.074 103.129 316.053 102.8 317.267 102.8H325.587C326.037 102.8 326.384 102.895 326.627 103.086C326.869 103.259 326.991 103.519 326.991 103.866C326.991 104.351 326.817 104.741 326.471 105.036C326.124 105.331 325.673 105.478 325.119 105.478H317.631C317.284 105.478 316.989 105.591 316.747 105.816C316.521 106.041 316.374 106.353 316.305 106.752L315.655 110.366H322.285C322.735 110.366 323.082 110.461 323.325 110.652C323.567 110.825 323.689 111.085 323.689 111.432C323.689 111.917 323.515 112.307 323.169 112.602C322.822 112.897 322.371 113.044 321.817 113.044H315.187L314.485 117.048C314.467 117.135 314.459 117.256 314.459 117.412C314.459 117.707 314.537 117.932 314.693 118.088C314.849 118.244 315.074 118.322 315.369 118.322H323.429C323.879 118.322 324.226 118.417 324.469 118.608C324.711 118.781 324.833 119.041 324.833 119.388C324.833 119.873 324.659 120.263 324.313 120.558C323.966 120.853 323.515 121 322.961 121H314.485ZM329.96 106.648C330.393 104.083 331.945 102.8 334.614 102.8H339.242C341.374 102.8 343.047 103.216 344.26 104.048C345.491 104.863 346.106 106.041 346.106 107.584C346.106 108.936 345.777 110.158 345.118 111.25C344.477 112.325 343.601 113.174 342.492 113.798C341.4 114.405 340.195 114.708 338.878 114.708L342.128 118.634C342.336 118.859 342.44 119.137 342.44 119.466C342.44 119.709 342.371 119.951 342.232 120.194C342.111 120.419 341.929 120.619 341.686 120.792C341.253 121.087 340.845 121.234 340.464 121.234C339.944 121.234 339.511 121.009 339.164 120.558L334.562 114.812H331.962L331.104 119.7C331.017 120.185 330.783 120.567 330.402 120.844C330.021 121.121 329.579 121.26 329.076 121.26C328.625 121.26 328.27 121.156 328.01 120.948C327.75 120.723 327.62 120.419 327.62 120.038C327.62 119.899 327.629 119.787 327.646 119.7L329.96 106.648ZM337.474 112.134C339.173 112.134 340.447 111.822 341.296 111.198C342.145 110.574 342.57 109.499 342.57 107.974C342.57 107.038 342.223 106.388 341.53 106.024C340.837 105.66 339.883 105.478 338.67 105.478H334.744C334.38 105.478 334.085 105.591 333.86 105.816C333.635 106.041 333.479 106.353 333.392 106.752L332.43 112.134H337.474ZM357.826 121C356.682 121 355.807 120.74 355.2 120.22C354.593 119.7 354.29 118.955 354.29 117.984C354.29 117.689 354.316 117.377 354.368 117.048L356.656 104.1C356.743 103.615 356.959 103.233 357.306 102.956C357.653 102.679 358.095 102.54 358.632 102.54C359.1 102.54 359.464 102.653 359.724 102.878C360.001 103.103 360.14 103.415 360.14 103.814C360.14 103.935 360.131 104.031 360.114 104.1L357.826 117.048C357.809 117.135 357.8 117.256 357.8 117.412C357.8 117.707 357.878 117.932 358.034 118.088C358.19 118.244 358.415 118.322 358.71 118.322H367.03C367.481 118.322 367.827 118.417 368.07 118.608C368.313 118.781 368.434 119.041 368.434 119.388C368.434 119.873 368.261 120.263 367.914 120.558C367.567 120.853 367.117 121 366.562 121H357.826ZM374.686 121C373.542 121 372.667 120.74 372.06 120.22C371.453 119.7 371.15 118.955 371.15 117.984C371.15 117.689 371.176 117.377 371.228 117.048L373.048 106.648C373.291 105.4 373.785 104.447 374.53 103.788C375.275 103.129 376.255 102.8 377.468 102.8H385.788C386.239 102.8 386.585 102.895 386.828 103.086C387.071 103.259 387.192 103.519 387.192 103.866C387.192 104.351 387.019 104.741 386.672 105.036C386.325 105.331 385.875 105.478 385.32 105.478H377.832C377.485 105.478 377.191 105.591 376.948 105.816C376.723 106.041 376.575 106.353 376.506 106.752L375.856 110.366H382.486C382.937 110.366 383.283 110.461 383.526 110.652C383.769 110.825 383.89 111.085 383.89 111.432C383.89 111.917 383.717 112.307 383.37 112.602C383.023 112.897 382.573 113.044 382.018 113.044H375.388L374.686 117.048C374.669 117.135 374.66 117.256 374.66 117.412C374.66 117.707 374.738 117.932 374.894 118.088C375.05 118.244 375.275 118.322 375.57 118.322H383.63C384.081 118.322 384.427 118.417 384.67 118.608C384.913 118.781 385.034 119.041 385.034 119.388C385.034 119.873 384.861 120.263 384.514 120.558C384.167 120.853 383.717 121 383.162 121H374.686ZM389.173 121.234C388.723 121.234 388.367 121.13 388.107 120.922C387.847 120.697 387.717 120.393 387.717 120.012C387.717 119.873 387.726 119.761 387.743 119.674L389.355 110.574C389.806 107.974 390.846 105.989 392.475 104.62C394.122 103.233 396.245 102.54 398.845 102.54C401.029 102.54 402.737 103.112 403.967 104.256C405.215 105.383 405.839 106.925 405.839 108.884C405.839 109.439 405.787 110.002 405.683 110.574L404.071 119.674C403.985 120.159 403.759 120.541 403.395 120.818C403.031 121.095 402.589 121.234 402.069 121.234C401.619 121.234 401.255 121.121 400.977 120.896C400.717 120.671 400.587 120.367 400.587 119.986C400.587 119.847 400.596 119.743 400.613 119.674L401.367 115.436H391.955L391.201 119.674C391.115 120.142 390.881 120.523 390.499 120.818C390.135 121.095 389.693 121.234 389.173 121.234ZM401.835 112.758L402.225 110.496C402.347 109.768 402.407 109.205 402.407 108.806C402.407 107.61 402.078 106.726 401.419 106.154C400.778 105.565 399.79 105.27 398.455 105.27C395.318 105.27 393.437 107.012 392.813 110.496L392.423 112.758H401.835ZM416.142 121.26C414.495 121.26 413.057 120.957 411.826 120.35C410.613 119.743 409.668 118.885 408.992 117.776C408.333 116.667 408.004 115.367 408.004 113.876C408.004 111.657 408.472 109.69 409.408 107.974C410.361 106.258 411.687 104.923 413.386 103.97C415.085 103.017 417.026 102.54 419.21 102.54C420.839 102.54 422.304 102.826 423.604 103.398C424.921 103.953 425.823 104.681 426.308 105.582C426.412 105.79 426.464 105.998 426.464 106.206C426.464 106.605 426.282 106.977 425.918 107.324C425.571 107.671 425.181 107.844 424.748 107.844C424.471 107.844 424.211 107.783 423.968 107.662C423.743 107.541 423.561 107.385 423.422 107.194C422.937 106.518 422.33 106.033 421.602 105.738C420.891 105.426 419.973 105.27 418.846 105.27C417.407 105.27 416.125 105.643 414.998 106.388C413.889 107.116 413.022 108.139 412.398 109.456C411.774 110.773 411.462 112.281 411.462 113.98C411.462 117.013 413.161 118.53 416.558 118.53C418.135 118.53 419.418 118.227 420.406 117.62C421.411 117.013 422.009 116.173 422.2 115.098L422.304 114.526C422.321 114.457 422.33 114.353 422.33 114.214C422.33 113.989 422.252 113.824 422.096 113.72C421.957 113.616 421.715 113.564 421.368 113.564H417.962C417.529 113.564 417.191 113.477 416.948 113.304C416.723 113.113 416.61 112.845 416.61 112.498C416.61 112.013 416.775 111.623 417.104 111.328C417.451 111.033 417.901 110.886 418.456 110.886H423.5C424.367 110.886 424.999 111.042 425.398 111.354C425.814 111.666 426.022 112.143 426.022 112.784C426.022 113.027 425.996 113.278 425.944 113.538L425.762 114.552C425.519 115.869 424.956 117.039 424.072 118.062C423.188 119.067 422.053 119.856 420.666 120.428C419.297 120.983 417.789 121.26 416.142 121.26ZM436.083 121.26C434.575 121.26 433.257 120.991 432.131 120.454C431.004 119.899 430.129 119.128 429.505 118.14C428.898 117.152 428.595 116.008 428.595 114.708C428.595 114.188 428.647 113.659 428.751 113.122L430.363 104.1C430.449 103.615 430.666 103.233 431.013 102.956C431.359 102.679 431.793 102.54 432.313 102.54C432.798 102.54 433.171 102.653 433.431 102.878C433.708 103.103 433.847 103.415 433.847 103.814C433.847 103.935 433.838 104.031 433.821 104.1L432.209 113.2C432.105 113.789 432.053 114.335 432.053 114.838C432.053 117.299 433.37 118.53 436.005 118.53C437.53 118.53 438.778 118.071 439.749 117.152C440.737 116.216 441.378 114.899 441.673 113.2L443.285 104.1C443.354 103.632 443.571 103.259 443.935 102.982C444.316 102.687 444.767 102.54 445.287 102.54C445.755 102.54 446.119 102.653 446.379 102.878C446.639 103.086 446.769 103.389 446.769 103.788C446.769 103.927 446.76 104.031 446.743 104.1L445.131 113.356C444.68 115.956 443.683 117.923 442.141 119.258C440.615 120.593 438.596 121.26 436.083 121.26ZM450.934 121C449.79 121 448.915 120.74 448.308 120.22C447.701 119.7 447.398 118.955 447.398 117.984C447.398 117.689 447.424 117.377 447.476 117.048L449.296 106.648C449.539 105.4 450.033 104.447 450.778 103.788C451.523 103.129 452.503 102.8 453.716 102.8H462.036C462.487 102.8 462.833 102.895 463.076 103.086C463.319 103.259 463.44 103.519 463.44 103.866C463.44 104.351 463.267 104.741 462.92 105.036C462.573 105.331 462.123 105.478 461.568 105.478H454.08C453.733 105.478 453.439 105.591 453.196 105.816C452.971 106.041 452.823 106.353 452.754 106.752L452.104 110.366H458.734C459.185 110.366 459.531 110.461 459.774 110.652C460.017 110.825 460.138 111.085 460.138 111.432C460.138 111.917 459.965 112.307 459.618 112.602C459.271 112.897 458.821 113.044 458.266 113.044H451.636L450.934 117.048C450.917 117.135 450.908 117.256 450.908 117.412C450.908 117.707 450.986 117.932 451.142 118.088C451.298 118.244 451.523 118.322 451.818 118.322H459.878C460.329 118.322 460.675 118.417 460.918 118.608C461.161 118.781 461.282 119.041 461.282 119.388C461.282 119.873 461.109 120.263 460.762 120.558C460.415 120.853 459.965 121 459.41 121H450.934Z" fill="#C1232D"/>
<path d="M206.648 220L238.686 132.02H270.558L256.116 171.528L311.062 132.02H346.586L289.15 176.01L321.022 220H285.498L252.962 180.492L238.52 220H206.648Z" fill="#FF003F"/>
<path d="M322.556 220L354.594 132.02H430.788C434.108 132.02 436.819 132.905 438.922 134.676C441.135 136.336 442.851 138.439 444.068 140.984C445.396 143.419 446.281 146.075 446.724 148.952C447.277 151.719 447.554 154.209 447.554 156.422C447.554 161.07 446.447 165.331 444.234 169.204C442.021 173.077 439.199 176.453 435.768 179.33C432.337 182.097 428.575 184.255 424.48 185.804C420.385 187.353 416.457 188.128 412.694 188.128H366.048L354.428 220H322.556ZM378.166 154.596L369.036 179.828L384.972 165.718H411.532C411.643 165.718 411.864 165.497 412.196 165.054C412.639 164.501 413.081 163.892 413.524 163.228C413.967 162.564 414.354 161.955 414.686 161.402C415.129 160.738 415.405 160.24 415.516 159.908L415.848 159.078C415.737 158.967 415.627 158.801 415.516 158.58C415.516 158.359 415.516 158.248 415.516 158.248C415.184 157.695 414.575 156.975 413.69 156.09C412.915 155.094 412.417 154.596 412.196 154.596H378.166Z" fill="#FF003F"/>
<path d="M434.574 220L466.612 132.02H498.318L474.414 197.59H527.036C527.146 197.59 526.482 198.531 525.044 200.412C523.716 202.293 522 204.507 519.898 207.052C517.795 209.487 515.582 211.977 513.258 214.522C510.934 216.957 508.997 218.783 507.448 220H434.574Z" fill="#FF003F"/>
<path d="M202.648 220L234.686 132.02H266.558L252.116 171.528L307.062 132.02H342.586L285.15 176.01L317.022 220H281.498L248.962 180.492L234.52 220H202.648Z" fill="white"/>
<path d="M318.556 220L350.594 132.02H426.788C430.108 132.02 432.819 132.905 434.922 134.676C437.135 136.336 438.851 138.439 440.068 140.984C441.396 143.419 442.281 146.075 442.724 148.952C443.277 151.719 443.554 154.209 443.554 156.422C443.554 161.07 442.447 165.331 440.234 169.204C438.021 173.077 435.199 176.453 431.768 179.33C428.337 182.097 424.575 184.255 420.48 185.804C416.385 187.353 412.457 188.128 408.694 188.128H362.048L350.428 220H318.556ZM374.166 154.596L365.036 179.828L380.972 165.718H407.532C407.643 165.718 407.864 165.497 408.196 165.054C408.639 164.501 409.081 163.892 409.524 163.228C409.967 162.564 410.354 161.955 410.686 161.402C411.129 160.738 411.405 160.24 411.516 159.908L411.848 159.078C411.737 158.967 411.627 158.801 411.516 158.58C411.516 158.359 411.516 158.248 411.516 158.248C411.184 157.695 410.575 156.975 409.69 156.09C408.915 155.094 408.417 154.596 408.196 154.596H374.166Z" fill="white"/>
<path d="M430.574 220L462.612 132.02H494.318L470.414 197.59H523.036C523.146 197.59 522.482 198.531 521.044 200.412C519.716 202.293 518 204.507 515.898 207.052C513.795 209.487 511.582 211.977 509.258 214.522C506.934 216.957 504.997 218.783 503.448 220H430.574Z" fill="white"/>
<path d="M200.648 220L232.686 132.02H264.558L250.116 171.528L305.062 132.02H340.586L283.15 176.01L315.022 220H279.498L246.962 180.492L232.52 220H200.648Z" fill="url(#paint2_linear_124_11)"/>
<path d="M316.556 220L348.594 132.02H424.788C428.108 132.02 430.819 132.905 432.922 134.676C435.135 136.336 436.851 138.439 438.068 140.984C439.396 143.419 440.281 146.075 440.724 148.952C441.277 151.719 441.554 154.209 441.554 156.422C441.554 161.07 440.447 165.331 438.234 169.204C436.021 173.077 433.199 176.453 429.768 179.33C426.337 182.097 422.575 184.255 418.48 185.804C414.385 187.353 410.457 188.128 406.694 188.128H360.048L348.428 220H316.556ZM372.166 154.596L363.036 179.828L378.972 165.718H405.532C405.643 165.718 405.864 165.497 406.196 165.054C406.639 164.501 407.081 163.892 407.524 163.228C407.967 162.564 408.354 161.955 408.686 161.402C409.129 160.738 409.405 160.24 409.516 159.908L409.848 159.078C409.737 158.967 409.627 158.801 409.516 158.58C409.516 158.359 409.516 158.248 409.516 158.248C409.184 157.695 408.575 156.975 407.69 156.09C406.915 155.094 406.417 154.596 406.196 154.596H372.166Z" fill="url(#paint3_linear_124_11)"/>
<path d="M428.574 220L460.612 132.02H492.318L468.414 197.59H521.036C521.146 197.59 520.482 198.531 519.044 200.412C517.716 202.293 516 204.507 513.898 207.052C511.795 209.487 509.582 211.977 507.258 214.522C504.934 216.957 502.997 218.783 501.448 220H428.574Z" fill="url(#paint4_linear_124_11)"/>
<mask id="path-34-outside-1_124_11" maskUnits="userSpaceOnUse" x="371" y="226" width="137" height="31" fill="black">
<rect fill="white" x="371" y="226" width="137" height="31"/>
<path d="M384.19 247.514C384.19 247.729 384.359 247.836 384.696 247.836H403.326C403.326 247.836 403.142 248.081 402.774 248.572C402.406 249.032 401.946 249.584 401.394 250.228C400.873 250.872 400.305 251.547 399.692 252.252C399.109 252.957 398.573 253.54 398.082 254H377.152C376.263 254 375.603 253.724 375.174 253.172C374.775 252.589 374.576 251.884 374.576 251.056C374.576 250.289 374.729 249.477 375.036 248.618C375.343 247.759 375.772 246.931 376.324 246.134C376.815 245.459 377.505 244.708 378.394 243.88C379.283 243.052 380.234 242.285 381.246 241.58C382.258 240.844 383.285 240.246 384.328 239.786C385.371 239.295 386.291 239.05 387.088 239.05H395.828C395.859 239.05 396.058 238.973 396.426 238.82C396.794 238.636 397.085 238.483 397.3 238.36C397.423 238.299 397.576 238.222 397.76 238.13C397.944 238.007 398.036 237.931 398.036 237.9L398.22 237.67C398.527 237.363 398.68 236.949 398.68 236.428C398.68 236.06 398.542 235.876 398.266 235.876H379.958C380.265 235.385 380.633 234.864 381.062 234.312C381.522 233.729 381.997 233.162 382.488 232.61C383.009 232.058 383.515 231.537 384.006 231.046C384.497 230.525 384.957 230.049 385.386 229.62H405.718C406.669 229.62 407.359 229.957 407.788 230.632C408.248 231.307 408.478 232.135 408.478 233.116C408.478 233.913 408.34 234.726 408.064 235.554C407.819 236.351 407.451 237.103 406.96 237.808C406.408 238.575 405.672 239.387 404.752 240.246C403.863 241.074 402.881 241.856 401.808 242.592C400.765 243.297 399.692 243.88 398.588 244.34C397.515 244.8 396.533 245.03 395.644 245.03H386.444C386.199 245.03 385.953 245.137 385.708 245.352C385.463 245.536 385.248 245.751 385.064 245.996L384.19 247.514ZM439.074 240.798C438.859 242.27 438.292 243.788 437.372 245.352C436.452 246.916 435.302 248.342 433.922 249.63C432.573 250.918 431.039 251.976 429.322 252.804C427.605 253.601 425.826 254 423.986 254H419.386C417.699 254 416.135 253.862 414.694 253.586C413.253 253.31 412.011 252.85 410.968 252.206C409.925 251.531 409.097 250.627 408.484 249.492C407.901 248.357 407.61 246.931 407.61 245.214C407.61 244.846 407.625 244.463 407.656 244.064C407.687 243.665 407.733 243.251 407.794 242.822C408.009 241.35 408.561 239.832 409.45 238.268C410.339 236.704 411.443 235.278 412.762 233.99C414.081 232.702 415.537 231.659 417.132 230.862C418.727 230.034 420.337 229.62 421.962 229.62H428.034C429.69 229.62 431.208 229.789 432.588 230.126C433.968 230.433 435.149 230.939 436.13 231.644C437.142 232.319 437.924 233.208 438.476 234.312C439.028 235.416 439.304 236.735 439.304 238.268C439.304 238.667 439.273 239.081 439.212 239.51C439.181 239.909 439.135 240.338 439.074 240.798ZM416.442 242.178C416.411 242.209 416.396 242.316 416.396 242.5V242.776C416.396 243.328 416.503 243.911 416.718 244.524C416.933 245.107 417.224 245.643 417.592 246.134C417.96 246.625 418.389 247.023 418.88 247.33C419.371 247.637 419.892 247.79 420.444 247.79H423.48C423.848 247.79 424.308 247.667 424.86 247.422C425.443 247.146 426.025 246.793 426.608 246.364C427.221 245.935 427.789 245.459 428.31 244.938C428.862 244.386 429.276 243.849 429.552 243.328C429.828 242.899 429.997 242.561 430.058 242.316L430.242 241.856C430.303 241.549 430.334 241.411 430.334 241.442C430.365 241.197 430.38 240.951 430.38 240.706C430.411 240.43 430.426 240.154 430.426 239.878C430.426 239.387 430.38 238.897 430.288 238.406C430.196 237.915 430.012 237.486 429.736 237.118C429.46 236.719 429.077 236.413 428.586 236.198C428.126 235.953 427.513 235.83 426.746 235.83H423.02C422.529 235.83 421.993 235.968 421.41 236.244C420.858 236.489 420.306 236.827 419.754 237.256C419.202 237.685 418.681 238.176 418.19 238.728C417.73 239.249 417.362 239.771 417.086 240.292C416.933 240.66 416.795 241.013 416.672 241.35C416.549 241.657 416.473 241.933 416.442 242.178ZM447.754 247.514C447.754 247.729 447.923 247.836 448.26 247.836H466.89C466.89 247.836 466.706 248.081 466.338 248.572C465.97 249.032 465.51 249.584 464.958 250.228C464.437 250.872 463.87 251.547 463.256 252.252C462.674 252.957 462.137 253.54 461.646 254H440.716C439.827 254 439.168 253.724 438.738 253.172C438.34 252.589 438.14 251.884 438.14 251.056C438.14 250.289 438.294 249.477 438.6 248.618C438.907 247.759 439.336 246.931 439.888 246.134C440.379 245.459 441.069 244.708 441.958 243.88C442.848 243.052 443.798 242.285 444.81 241.58C445.822 240.844 446.85 240.246 447.892 239.786C448.935 239.295 449.855 239.05 450.652 239.05H459.392C459.423 239.05 459.622 238.973 459.99 238.82C460.358 238.636 460.65 238.483 460.864 238.36C460.987 238.299 461.14 238.222 461.324 238.13C461.508 238.007 461.6 237.931 461.6 237.9L461.784 237.67C462.091 237.363 462.244 236.949 462.244 236.428C462.244 236.06 462.106 235.876 461.83 235.876H443.522C443.829 235.385 444.197 234.864 444.626 234.312C445.086 233.729 445.562 233.162 446.052 232.61C446.574 232.058 447.08 231.537 447.57 231.046C448.061 230.525 448.521 230.049 448.95 229.62H469.282C470.233 229.62 470.923 229.957 471.352 230.632C471.812 231.307 472.042 232.135 472.042 233.116C472.042 233.913 471.904 234.726 471.628 235.554C471.383 236.351 471.015 237.103 470.524 237.808C469.972 238.575 469.236 239.387 468.316 240.246C467.427 241.074 466.446 241.856 465.372 242.592C464.33 243.297 463.256 243.88 462.152 244.34C461.079 244.8 460.098 245.03 459.208 245.03H450.008C449.763 245.03 449.518 245.137 449.272 245.352C449.027 245.536 448.812 245.751 448.628 245.996L447.754 247.514ZM494.773 254H485.941L490.863 240.476L486.125 245.26H470.439L476.143 229.62H484.883L481.433 239.05H491.369L494.819 229.62H503.651L494.773 254Z"/>
</mask>
<path d="M384.19 247.514C384.19 247.729 384.359 247.836 384.696 247.836H403.326C403.326 247.836 403.142 248.081 402.774 248.572C402.406 249.032 401.946 249.584 401.394 250.228C400.873 250.872 400.305 251.547 399.692 252.252C399.109 252.957 398.573 253.54 398.082 254H377.152C376.263 254 375.603 253.724 375.174 253.172C374.775 252.589 374.576 251.884 374.576 251.056C374.576 250.289 374.729 249.477 375.036 248.618C375.343 247.759 375.772 246.931 376.324 246.134C376.815 245.459 377.505 244.708 378.394 243.88C379.283 243.052 380.234 242.285 381.246 241.58C382.258 240.844 383.285 240.246 384.328 239.786C385.371 239.295 386.291 239.05 387.088 239.05H395.828C395.859 239.05 396.058 238.973 396.426 238.82C396.794 238.636 397.085 238.483 397.3 238.36C397.423 238.299 397.576 238.222 397.76 238.13C397.944 238.007 398.036 237.931 398.036 237.9L398.22 237.67C398.527 237.363 398.68 236.949 398.68 236.428C398.68 236.06 398.542 235.876 398.266 235.876H379.958C380.265 235.385 380.633 234.864 381.062 234.312C381.522 233.729 381.997 233.162 382.488 232.61C383.009 232.058 383.515 231.537 384.006 231.046C384.497 230.525 384.957 230.049 385.386 229.62H405.718C406.669 229.62 407.359 229.957 407.788 230.632C408.248 231.307 408.478 232.135 408.478 233.116C408.478 233.913 408.34 234.726 408.064 235.554C407.819 236.351 407.451 237.103 406.96 237.808C406.408 238.575 405.672 239.387 404.752 240.246C403.863 241.074 402.881 241.856 401.808 242.592C400.765 243.297 399.692 243.88 398.588 244.34C397.515 244.8 396.533 245.03 395.644 245.03H386.444C386.199 245.03 385.953 245.137 385.708 245.352C385.463 245.536 385.248 245.751 385.064 245.996L384.19 247.514ZM439.074 240.798C438.859 242.27 438.292 243.788 437.372 245.352C436.452 246.916 435.302 248.342 433.922 249.63C432.573 250.918 431.039 251.976 429.322 252.804C427.605 253.601 425.826 254 423.986 254H419.386C417.699 254 416.135 253.862 414.694 253.586C413.253 253.31 412.011 252.85 410.968 252.206C409.925 251.531 409.097 250.627 408.484 249.492C407.901 248.357 407.61 246.931 407.61 245.214C407.61 244.846 407.625 244.463 407.656 244.064C407.687 243.665 407.733 243.251 407.794 242.822C408.009 241.35 408.561 239.832 409.45 238.268C410.339 236.704 411.443 235.278 412.762 233.99C414.081 232.702 415.537 231.659 417.132 230.862C418.727 230.034 420.337 229.62 421.962 229.62H428.034C429.69 229.62 431.208 229.789 432.588 230.126C433.968 230.433 435.149 230.939 436.13 231.644C437.142 232.319 437.924 233.208 438.476 234.312C439.028 235.416 439.304 236.735 439.304 238.268C439.304 238.667 439.273 239.081 439.212 239.51C439.181 239.909 439.135 240.338 439.074 240.798ZM416.442 242.178C416.411 242.209 416.396 242.316 416.396 242.5V242.776C416.396 243.328 416.503 243.911 416.718 244.524C416.933 245.107 417.224 245.643 417.592 246.134C417.96 246.625 418.389 247.023 418.88 247.33C419.371 247.637 419.892 247.79 420.444 247.79H423.48C423.848 247.79 424.308 247.667 424.86 247.422C425.443 247.146 426.025 246.793 426.608 246.364C427.221 245.935 427.789 245.459 428.31 244.938C428.862 244.386 429.276 243.849 429.552 243.328C429.828 242.899 429.997 242.561 430.058 242.316L430.242 241.856C430.303 241.549 430.334 241.411 430.334 241.442C430.365 241.197 430.38 240.951 430.38 240.706C430.411 240.43 430.426 240.154 430.426 239.878C430.426 239.387 430.38 238.897 430.288 238.406C430.196 237.915 430.012 237.486 429.736 237.118C429.46 236.719 429.077 236.413 428.586 236.198C428.126 235.953 427.513 235.83 426.746 235.83H423.02C422.529 235.83 421.993 235.968 421.41 236.244C420.858 236.489 420.306 236.827 419.754 237.256C419.202 237.685 418.681 238.176 418.19 238.728C417.73 239.249 417.362 239.771 417.086 240.292C416.933 240.66 416.795 241.013 416.672 241.35C416.549 241.657 416.473 241.933 416.442 242.178ZM447.754 247.514C447.754 247.729 447.923 247.836 448.26 247.836H466.89C466.89 247.836 466.706 248.081 466.338 248.572C465.97 249.032 465.51 249.584 464.958 250.228C464.437 250.872 463.87 251.547 463.256 252.252C462.674 252.957 462.137 253.54 461.646 254H440.716C439.827 254 439.168 253.724 438.738 253.172C438.34 252.589 438.14 251.884 438.14 251.056C438.14 250.289 438.294 249.477 438.6 248.618C438.907 247.759 439.336 246.931 439.888 246.134C440.379 245.459 441.069 244.708 441.958 243.88C442.848 243.052 443.798 242.285 444.81 241.58C445.822 240.844 446.85 240.246 447.892 239.786C448.935 239.295 449.855 239.05 450.652 239.05H459.392C459.423 239.05 459.622 238.973 459.99 238.82C460.358 238.636 460.65 238.483 460.864 238.36C460.987 238.299 461.14 238.222 461.324 238.13C461.508 238.007 461.6 237.931 461.6 237.9L461.784 237.67C462.091 237.363 462.244 236.949 462.244 236.428C462.244 236.06 462.106 235.876 461.83 235.876H443.522C443.829 235.385 444.197 234.864 444.626 234.312C445.086 233.729 445.562 233.162 446.052 232.61C446.574 232.058 447.08 231.537 447.57 231.046C448.061 230.525 448.521 230.049 448.95 229.62H469.282C470.233 229.62 470.923 229.957 471.352 230.632C471.812 231.307 472.042 232.135 472.042 233.116C472.042 233.913 471.904 234.726 471.628 235.554C471.383 236.351 471.015 237.103 470.524 237.808C469.972 238.575 469.236 239.387 468.316 240.246C467.427 241.074 466.446 241.856 465.372 242.592C464.33 243.297 463.256 243.88 462.152 244.34C461.079 244.8 460.098 245.03 459.208 245.03H450.008C449.763 245.03 449.518 245.137 449.272 245.352C449.027 245.536 448.812 245.751 448.628 245.996L447.754 247.514ZM494.773 254H485.941L490.863 240.476L486.125 245.26H470.439L476.143 229.62H484.883L481.433 239.05H491.369L494.819 229.62H503.651L494.773 254Z" fill="#FF003F"/>
<path d="M384.19 247.514L381.59 246.017L381.19 246.712V247.514H384.19ZM403.326 247.836L405.726 249.636L409.326 244.836H403.326V247.836ZM402.774 248.572L405.117 250.446L405.146 250.409L405.174 250.372L402.774 248.572ZM401.394 250.228L399.116 248.276L399.089 248.308L399.062 248.34L401.394 250.228ZM399.692 252.252L397.428 250.283L397.403 250.312L397.379 250.341L399.692 252.252ZM398.082 254V257H399.268L400.134 256.189L398.082 254ZM375.174 253.172L372.698 254.866L372.75 254.942L372.806 255.014L375.174 253.172ZM375.036 248.618L372.211 247.609L372.211 247.609L375.036 248.618ZM376.324 246.134L373.898 244.369L373.877 244.398L373.857 244.426L376.324 246.134ZM378.394 243.88L376.35 241.684L376.35 241.684L378.394 243.88ZM381.246 241.58L382.961 244.041L382.986 244.024L383.011 244.006L381.246 241.58ZM384.328 239.786L385.539 242.531L385.572 242.516L385.605 242.5L384.328 239.786ZM396.426 238.82L397.58 241.589L397.675 241.549L397.768 241.503L396.426 238.82ZM397.3 238.36L395.958 235.677L395.884 235.714L395.812 235.755L397.3 238.36ZM397.76 238.13L399.102 240.813L399.269 240.73L399.424 240.626L397.76 238.13ZM398.036 237.9L395.693 236.026L395.036 236.848V237.9H398.036ZM398.22 237.67L396.099 235.549L395.981 235.666L395.877 235.796L398.22 237.67ZM379.958 235.876L377.414 234.286L374.545 238.876H379.958V235.876ZM381.062 234.312L378.707 232.453L378.701 232.462L378.694 232.47L381.062 234.312ZM382.488 232.61L380.307 230.55L380.276 230.583L380.246 230.617L382.488 232.61ZM384.006 231.046L386.127 233.167L386.159 233.135L386.191 233.102L384.006 231.046ZM385.386 229.62V226.62H384.143L383.265 227.499L385.386 229.62ZM407.788 230.632L405.257 232.243L405.283 232.283L405.309 232.322L407.788 230.632ZM408.064 235.554L405.218 234.605L405.207 234.638L405.197 234.672L408.064 235.554ZM406.96 237.808L409.395 239.561L409.409 239.541L409.423 239.521L406.96 237.808ZM404.752 240.246L406.796 242.442L406.799 242.439L404.752 240.246ZM401.808 242.592L403.489 245.077L403.497 245.072L403.505 245.066L401.808 242.592ZM398.588 244.34L397.434 241.571L397.42 241.577L397.406 241.583L398.588 244.34ZM385.708 245.352L387.508 247.752L387.598 247.684L387.684 247.61L385.708 245.352ZM385.064 245.996L382.664 244.196L382.555 244.341L382.464 244.499L385.064 245.996ZM381.19 247.514C381.19 248.556 381.682 249.635 382.706 250.286C383.499 250.791 384.306 250.836 384.696 250.836V244.836C384.749 244.836 385.302 244.827 385.927 245.225C386.282 245.45 386.633 245.793 386.879 246.263C387.12 246.724 387.19 247.17 387.19 247.514H381.19ZM384.696 250.836H403.326V244.836H384.696V250.836ZM403.326 247.836C400.926 246.036 400.926 246.036 400.926 246.036C400.926 246.036 400.926 246.036 400.926 246.036C400.926 246.036 400.926 246.036 400.926 246.036C400.926 246.036 400.926 246.036 400.926 246.036C400.926 246.036 400.926 246.036 400.926 246.036C400.926 246.036 400.926 246.036 400.926 246.036C400.926 246.037 400.926 246.036 400.925 246.037C400.922 246.041 400.927 246.034 400.924 246.039C400.903 246.067 400.94 246.017 400.917 246.047C400.827 246.168 400.987 245.954 400.892 246.082C400.784 246.225 400.961 245.989 400.848 246.139C400.776 246.236 400.894 246.078 400.82 246.177C400.699 246.338 400.91 246.057 400.788 246.22C400.727 246.302 400.814 246.185 400.751 246.269C400.656 246.396 400.807 246.195 400.71 246.323C400.611 246.456 400.766 246.249 400.665 246.384C400.628 246.434 400.679 246.366 400.641 246.416C400.564 246.519 400.693 246.347 400.616 246.45C400.568 246.514 400.557 246.528 400.503 246.599C400.437 246.689 400.509 246.592 400.441 246.683C400.44 246.684 400.439 246.685 400.439 246.686C400.438 246.686 400.437 246.687 400.437 246.688C400.436 246.689 400.435 246.69 400.435 246.691C400.434 246.692 400.433 246.693 400.433 246.694C400.416 246.715 400.445 246.677 400.429 246.699C400.428 246.7 400.427 246.701 400.427 246.702C400.426 246.703 400.425 246.704 400.425 246.705C400.392 246.748 400.449 246.672 400.416 246.716C400.416 246.717 400.415 246.717 400.414 246.718C400.414 246.719 400.413 246.72 400.412 246.721C400.411 246.722 400.411 246.723 400.41 246.724C400.409 246.725 400.409 246.726 400.408 246.727C400.333 246.827 400.45 246.671 400.374 246.772L405.174 250.372C405.19 250.351 405.162 250.387 405.178 250.366C405.199 250.339 405.162 250.388 405.183 250.361C405.219 250.312 405.155 250.397 405.191 250.349C405.243 250.28 405.156 250.396 405.208 250.327C405.23 250.297 405.203 250.334 405.225 250.305C405.358 250.127 405.108 250.461 405.241 250.283C405.384 250.093 405.13 250.43 405.273 250.24C405.316 250.183 405.245 250.278 405.288 250.22C405.404 250.065 405.188 250.354 405.303 250.2C405.344 250.146 405.271 250.243 405.311 250.189C405.351 250.136 405.278 250.233 405.318 250.18C405.376 250.103 405.275 250.237 405.333 250.16C405.468 249.981 405.227 250.301 405.362 250.122C405.389 250.085 405.362 250.122 405.389 250.085C405.402 250.067 405.389 250.085 405.402 250.067C405.403 250.067 405.404 250.066 405.404 250.065C405.405 250.065 405.405 250.064 405.406 250.063C405.409 250.058 405.405 250.064 405.409 250.059C405.414 250.051 405.407 250.062 405.412 250.054C405.441 250.016 405.387 250.088 405.415 250.05C405.423 250.04 405.421 250.042 405.428 250.033C405.454 249.999 405.409 250.058 405.435 250.025C405.485 249.957 405.391 250.083 405.441 250.016C405.557 249.862 405.337 250.154 405.453 250C405.474 249.972 405.444 250.012 405.465 249.984C405.526 249.903 405.451 250.003 405.51 249.924C405.668 249.713 405.436 250.022 405.588 249.82C405.711 249.656 405.531 249.895 405.648 249.74C405.654 249.732 405.655 249.73 405.661 249.723C405.668 249.714 405.655 249.73 405.662 249.721C405.662 249.721 405.663 249.72 405.663 249.72C405.663 249.72 405.663 249.719 405.664 249.719C405.664 249.719 405.664 249.718 405.664 249.718C405.665 249.718 405.665 249.717 405.665 249.717C405.675 249.704 405.657 249.728 405.667 249.715C405.694 249.678 405.645 249.745 405.672 249.708C405.682 249.695 405.673 249.707 405.682 249.694C405.723 249.64 405.651 249.736 405.692 249.682C405.714 249.651 405.685 249.691 405.707 249.662C405.714 249.653 405.701 249.669 405.708 249.66C405.71 249.658 405.707 249.661 405.709 249.659C405.709 249.659 405.709 249.658 405.709 249.658C405.709 249.658 405.71 249.658 405.71 249.658C405.71 249.658 405.71 249.657 405.71 249.657C405.71 249.657 405.71 249.657 405.71 249.657C405.716 249.649 405.705 249.664 405.711 249.656C405.718 249.647 405.706 249.663 405.713 249.654C405.717 249.648 405.711 249.656 405.715 249.651C405.716 249.65 405.715 249.65 405.716 249.649C405.719 249.646 405.714 249.652 405.717 249.648C405.717 249.648 405.717 249.648 405.717 249.648C405.717 249.648 405.717 249.648 405.717 249.648C405.719 249.646 405.717 249.648 405.718 249.646C405.723 249.64 405.715 249.65 405.719 249.645C405.722 249.642 405.718 249.647 405.72 249.644C405.72 249.644 405.72 249.644 405.72 249.644C405.72 249.644 405.72 249.644 405.72 249.644C405.722 249.642 405.719 249.645 405.721 249.643C405.721 249.643 405.721 249.643 405.721 249.642C405.724 249.638 405.721 249.643 405.724 249.639C405.724 249.639 405.724 249.639 405.724 249.639C405.724 249.639 405.724 249.639 405.724 249.639C405.724 249.638 405.724 249.638 405.724 249.638C405.724 249.638 405.724 249.638 405.724 249.638C405.726 249.636 405.723 249.64 405.725 249.638C405.726 249.636 405.724 249.638 405.725 249.637C405.725 249.637 405.725 249.637 405.725 249.637C405.725 249.637 405.725 249.637 405.725 249.637C405.725 249.637 405.725 249.637 405.725 249.637C405.726 249.636 405.725 249.638 405.726 249.636C405.727 249.635 405.725 249.637 405.726 249.636C405.726 249.636 405.726 249.636 405.726 249.636C405.726 249.636 405.726 249.636 405.726 249.636C405.726 249.636 405.726 249.636 405.726 249.636C405.726 249.636 405.726 249.636 405.726 249.636C405.726 249.636 405.726 249.636 403.326 247.836ZM400.431 246.698C400.092 247.123 399.655 247.647 399.116 248.276L403.672 252.18C404.237 251.521 404.72 250.941 405.117 250.446L400.431 246.698ZM399.062 248.34C398.566 248.954 398.021 249.601 397.428 250.283L401.956 254.221C402.589 253.492 403.18 252.79 403.726 252.116L399.062 248.34ZM397.379 250.341C396.851 250.981 396.402 251.463 396.03 251.811L400.134 256.189C400.744 255.617 401.368 254.934 402.005 254.163L397.379 250.341ZM398.082 251H377.152V257H398.082V251ZM377.152 251C377.011 251 377.034 250.978 377.149 251.026C377.208 251.05 377.28 251.089 377.355 251.146C377.431 251.204 377.493 251.268 377.542 251.33L372.806 255.014C373.954 256.49 375.612 257 377.152 257V251ZM377.65 251.478C377.649 251.476 377.576 251.386 377.576 251.056H371.576C371.576 252.382 371.902 253.703 372.698 254.866L377.65 251.478ZM377.576 251.056C377.576 250.691 377.649 250.222 377.861 249.627L372.211 247.609C371.81 248.732 371.576 249.887 371.576 251.056H377.576ZM377.861 249.627C378.074 249.031 378.379 248.437 378.791 247.842L373.857 244.426C373.165 245.426 372.611 246.488 372.211 247.609L377.861 249.627ZM378.75 247.899C379.089 247.432 379.632 246.826 380.438 246.076L376.35 241.684C375.377 242.59 374.54 243.486 373.898 244.369L378.75 247.899ZM380.438 246.076C381.223 245.345 382.063 244.667 382.961 244.041L379.531 239.119C378.405 239.904 377.344 240.759 376.35 241.684L380.438 246.076ZM383.011 244.006C383.866 243.384 384.71 242.897 385.539 242.531L383.117 237.041C381.861 237.595 380.65 238.304 379.481 239.154L383.011 244.006ZM385.605 242.5C386.413 242.12 386.884 242.05 387.088 242.05V236.05C385.698 236.05 384.328 236.47 383.051 237.072L385.605 242.5ZM387.088 242.05H395.828V236.05H387.088V242.05ZM395.828 242.05C396.263 242.05 396.61 241.948 396.611 241.948C396.708 241.922 396.788 241.896 396.831 241.882C396.924 241.851 397.012 241.818 397.077 241.793C397.216 241.739 397.388 241.669 397.58 241.589L395.272 236.051C395.096 236.124 394.984 236.169 394.924 236.192C394.89 236.206 394.899 236.201 394.934 236.19C394.949 236.185 395.005 236.166 395.084 236.145C395.123 236.135 395.196 236.117 395.289 236.099C395.337 236.09 395.404 236.079 395.485 236.07C395.561 236.061 395.681 236.05 395.828 236.05V242.05ZM397.768 241.503C398.157 241.308 398.505 241.127 398.788 240.965L395.812 235.755C395.666 235.838 395.431 235.964 395.084 236.137L397.768 241.503ZM398.642 241.043C398.764 240.982 398.918 240.905 399.102 240.813L396.418 235.447C396.234 235.539 396.081 235.615 395.958 235.677L398.642 241.043ZM399.424 240.626C399.544 240.546 399.718 240.427 399.888 240.285C399.964 240.221 400.127 240.082 400.297 239.884C400.381 239.785 400.527 239.603 400.665 239.35C400.785 239.13 401.036 238.612 401.036 237.9H395.036C395.036 237.196 395.284 236.686 395.398 236.477C395.53 236.234 395.668 236.065 395.741 235.979C395.888 235.808 396.016 235.701 396.046 235.676C396.124 235.611 396.16 235.591 396.096 235.634L399.424 240.626ZM400.379 239.774L400.563 239.544L395.877 235.796L395.693 236.026L400.379 239.774ZM400.341 239.791C401.322 238.811 401.68 237.573 401.68 236.428H395.68C395.68 236.396 395.685 236.268 395.752 236.088C395.822 235.897 395.941 235.707 396.099 235.549L400.341 239.791ZM401.68 236.428C401.68 235.956 401.607 235.054 400.977 234.214C400.225 233.212 399.136 232.876 398.266 232.876V238.876C397.672 238.876 396.79 238.632 396.177 237.814C395.684 237.158 395.68 236.532 395.68 236.428H401.68ZM398.266 232.876H379.958V238.876H398.266V232.876ZM382.502 237.466C382.745 237.078 383.051 236.641 383.43 236.154L378.694 232.47C378.214 233.087 377.785 233.693 377.414 234.286L382.502 237.466ZM383.417 236.171C383.841 235.634 384.279 235.111 384.73 234.603L380.246 230.617C379.716 231.213 379.203 231.825 378.707 232.453L383.417 236.171ZM384.669 234.67C385.173 234.137 385.659 233.636 386.127 233.167L381.885 228.925C381.372 229.437 380.846 229.979 380.307 230.55L384.669 234.67ZM386.191 233.102C386.664 232.599 387.103 232.146 387.507 231.741L383.265 227.499C382.811 227.953 382.329 228.45 381.821 228.99L386.191 233.102ZM385.386 232.62H405.718V226.62H385.386V232.62ZM405.718 232.62C405.843 232.62 405.782 232.642 405.631 232.568C405.556 232.531 405.477 232.48 405.405 232.415C405.334 232.35 405.286 232.288 405.257 232.243L410.319 229.021C409.228 227.307 407.469 226.62 405.718 226.62V232.62ZM405.309 232.322C405.366 232.405 405.478 232.614 405.478 233.116H411.478C411.478 231.655 411.13 230.208 410.267 228.942L405.309 232.322ZM405.478 233.116C405.478 233.562 405.402 234.054 405.218 234.605L410.91 236.503C411.278 235.398 411.478 234.265 411.478 233.116H405.478ZM405.197 234.672C405.045 235.164 404.816 235.636 404.497 236.095L409.423 239.521C410.085 238.569 410.592 237.539 410.931 236.436L405.197 234.672ZM404.525 236.055C404.118 236.62 403.526 237.287 402.705 238.053L406.799 242.439C407.818 241.488 408.698 240.529 409.395 239.561L404.525 236.055ZM402.708 238.05C401.935 238.77 401.071 239.46 400.111 240.118L403.505 245.066C404.692 244.252 405.791 243.378 406.796 242.442L402.708 238.05ZM400.127 240.107C399.242 240.706 398.344 241.192 397.434 241.571L399.742 247.109C401.04 246.568 402.289 245.888 403.489 245.077L400.127 240.107ZM397.406 241.583C396.595 241.93 396.021 242.03 395.644 242.03V248.03C397.045 248.03 398.434 247.67 399.77 247.097L397.406 241.583ZM395.644 242.03H386.444V248.03H395.644V242.03ZM386.444 242.03C385.262 242.03 384.342 242.561 383.732 243.094L387.684 247.61C387.564 247.714 387.136 248.03 386.444 248.03V242.03ZM383.908 242.952C383.435 243.307 383.019 243.723 382.664 244.196L387.464 247.796C387.477 247.778 387.49 247.765 387.508 247.752L383.908 242.952ZM382.464 244.499L381.59 246.017L386.79 249.011L387.664 247.493L382.464 244.499ZM439.074 240.798L442.043 241.231L442.045 241.213L442.048 241.194L439.074 240.798ZM437.372 245.352L439.958 246.873L439.958 246.873L437.372 245.352ZM433.922 249.63L431.875 247.437L431.863 247.448L431.851 247.46L433.922 249.63ZM429.322 252.804L430.585 255.525L430.605 255.516L430.625 255.506L429.322 252.804ZM414.694 253.586L415.258 250.64L415.258 250.64L414.694 253.586ZM410.968 252.206L409.338 254.725L409.365 254.742L409.392 254.758L410.968 252.206ZM408.484 249.492L405.815 250.862L405.83 250.891L405.845 250.919L408.484 249.492ZM407.656 244.064L410.647 244.294L410.647 244.294L407.656 244.064ZM407.794 242.822L404.825 242.389L404.824 242.398L407.794 242.822ZM409.45 238.268L412.058 239.751L412.058 239.751L409.45 238.268ZM412.762 233.99L410.666 231.844L410.666 231.844L412.762 233.99ZM417.132 230.862L418.474 233.545L418.494 233.535L418.515 233.524L417.132 230.862ZM432.588 230.126L431.876 233.04L431.906 233.048L431.937 233.055L432.588 230.126ZM436.13 231.644L434.379 234.08L434.422 234.111L434.466 234.14L436.13 231.644ZM438.476 234.312L441.159 232.97L441.159 232.97L438.476 234.312ZM439.212 239.51L436.242 239.086L436.228 239.182L436.221 239.28L439.212 239.51ZM416.442 242.178L418.563 244.299L419.291 243.571L419.419 242.55L416.442 242.178ZM416.718 244.524L413.887 245.515L413.895 245.538L413.903 245.561L416.718 244.524ZM418.88 247.33L420.47 244.786L420.47 244.786L418.88 247.33ZM424.86 247.422L426.079 250.163L426.112 250.149L426.144 250.133L424.86 247.422ZM426.608 246.364L424.888 243.906L424.858 243.927L424.829 243.949L426.608 246.364ZM428.31 244.938L430.431 247.059L430.431 247.059L428.31 244.938ZM429.552 243.328L427.029 241.706L426.96 241.812L426.901 241.924L429.552 243.328ZM430.058 242.316L427.273 241.202L427.197 241.391L427.148 241.588L430.058 242.316ZM430.242 241.856L433.028 242.97L433.13 242.714L433.184 242.444L430.242 241.856ZM430.334 241.442H427.334L433.311 241.814L430.334 241.442ZM430.38 240.706L427.398 240.375L427.38 240.54V240.706H430.38ZM430.288 238.406L427.339 238.959L427.339 238.959L430.288 238.406ZM429.736 237.118L427.27 238.826L427.302 238.872L427.336 238.918L429.736 237.118ZM428.586 236.198L427.174 238.845L427.277 238.9L427.384 238.946L428.586 236.198ZM421.41 236.244L422.629 238.985L422.662 238.971L422.694 238.955L421.41 236.244ZM419.754 237.256L417.912 234.888L417.912 234.888L419.754 237.256ZM418.19 238.728L415.948 236.735L415.941 236.743L418.19 238.728ZM417.086 240.292L414.435 238.888L414.37 239.011L414.317 239.138L417.086 240.292ZM416.672 241.35L419.458 242.464L419.475 242.42L419.491 242.375L416.672 241.35ZM436.106 240.365C435.958 241.379 435.552 242.53 434.786 243.831L439.958 246.873C441.033 245.046 441.761 243.161 442.043 241.231L436.106 240.365ZM434.786 243.831C434.018 245.136 433.053 246.338 431.875 247.437L435.969 251.823C437.552 250.346 438.886 248.696 439.958 246.873L434.786 243.831ZM431.851 247.46C430.733 248.527 429.46 249.407 428.019 250.102L430.625 255.506C432.618 254.545 434.412 253.309 435.994 251.8L431.851 247.46ZM428.059 250.083C426.725 250.702 425.377 251 423.986 251V257C426.275 257 428.484 256.501 430.585 255.525L428.059 250.083ZM423.986 251H419.386V257H423.986V251ZM419.386 251C417.861 251 416.489 250.875 415.258 250.64L414.13 256.532C415.782 256.849 417.538 257 419.386 257V251ZM415.258 250.64C414.107 250.419 413.222 250.072 412.545 249.654L409.392 254.758C410.8 255.628 412.399 256.201 414.13 256.532L415.258 250.64ZM412.598 249.687C411.995 249.297 411.507 248.775 411.123 248.065L405.845 250.919C406.688 252.478 407.856 253.766 409.338 254.725L412.598 249.687ZM411.153 248.122C410.85 247.532 410.61 246.612 410.61 245.214H404.61C404.61 247.25 404.953 249.183 405.815 250.862L411.153 248.122ZM410.61 245.214C410.61 244.929 410.622 244.623 410.647 244.294L404.665 243.834C404.629 244.303 404.61 244.763 404.61 245.214H410.61ZM410.647 244.294C410.673 243.966 410.711 243.616 410.764 243.246L404.824 242.398C404.754 242.886 404.701 243.365 404.665 243.834L410.647 244.294ZM410.763 243.255C410.914 242.221 411.316 241.057 412.058 239.751L406.842 236.785C405.806 238.607 405.104 240.479 404.826 242.389L410.763 243.255ZM412.058 239.751C412.805 238.437 413.735 237.233 414.858 236.136L410.666 231.844C409.151 233.323 407.874 234.971 406.842 236.785L412.058 239.751ZM414.858 236.136C415.962 235.058 417.166 234.199 418.474 233.545L415.79 228.179C413.909 229.12 412.199 230.346 410.666 231.844L414.858 236.136ZM418.515 233.524C419.728 232.894 420.867 232.62 421.962 232.62V226.62C419.806 226.62 417.726 227.174 415.75 228.2L418.515 233.524ZM421.962 232.62H428.034V226.62H421.962V232.62ZM428.034 232.62C429.489 232.62 430.764 232.768 431.876 233.04L433.3 227.212C431.653 226.809 429.892 226.62 428.034 226.62V232.62ZM431.937 233.055C432.988 233.288 433.779 233.648 434.379 234.08L437.881 229.208C436.519 228.229 434.949 227.577 433.239 227.197L431.937 233.055ZM434.466 234.14C435.037 234.521 435.471 235.009 435.793 235.654L441.159 232.97C440.378 231.407 439.247 230.117 437.794 229.148L434.466 234.14ZM435.793 235.654C436.092 236.252 436.304 237.09 436.304 238.268H442.304C442.304 236.379 441.964 234.58 441.159 232.97L435.793 235.654ZM436.304 238.268C436.304 238.513 436.285 238.785 436.242 239.086L442.182 239.934C442.262 239.377 442.304 238.82 442.304 238.268H436.304ZM436.221 239.28C436.195 239.615 436.156 239.988 436.1 240.402L442.048 241.194C442.115 240.688 442.168 240.202 442.203 239.74L436.221 239.28ZM414.321 240.057C413.832 240.545 413.642 241.069 413.576 241.267C413.493 241.516 413.456 241.73 413.438 241.857C413.401 242.115 413.396 242.349 413.396 242.5H419.396C419.396 242.467 419.399 242.555 419.377 242.706C419.367 242.78 419.34 242.95 419.268 243.164C419.214 243.327 419.036 243.826 418.563 244.299L414.321 240.057ZM413.396 242.5V242.776H419.396V242.5H413.396ZM413.396 242.776C413.396 243.719 413.58 244.638 413.887 245.515L419.55 243.533C419.427 243.183 419.396 242.937 419.396 242.776H413.396ZM413.903 245.561C414.217 246.413 414.647 247.208 415.192 247.934L419.992 244.334C419.801 244.079 419.648 243.8 419.533 243.487L413.903 245.561ZM415.192 247.934C415.769 248.703 416.467 249.36 417.29 249.874L420.47 244.786C420.311 244.687 420.152 244.547 419.992 244.334L415.192 247.934ZM417.29 249.874C418.233 250.464 419.302 250.79 420.444 250.79V244.79C420.445 244.79 420.451 244.79 420.46 244.791C420.469 244.793 420.478 244.795 420.486 244.797C420.493 244.799 420.497 244.801 420.495 244.8C420.494 244.799 420.485 244.796 420.47 244.786L417.29 249.874ZM420.444 250.79H423.48V244.79H420.444V250.79ZM423.48 250.79C424.453 250.79 425.359 250.483 426.079 250.163L423.642 244.681C423.473 244.755 423.372 244.788 423.328 244.799C423.308 244.805 423.311 244.803 423.334 244.799C423.356 244.796 423.407 244.79 423.48 244.79V250.79ZM426.144 250.133C426.921 249.765 427.668 249.309 428.388 248.779L424.829 243.949C424.382 244.277 423.965 244.527 423.576 244.711L426.144 250.133ZM428.328 248.822C429.083 248.294 429.785 247.706 430.431 247.059L426.189 242.817C425.793 243.213 425.36 243.576 424.888 243.906L428.328 248.822ZM430.431 247.059C431.131 246.36 431.751 245.587 432.203 244.732L426.901 241.924C426.802 242.112 426.593 242.412 426.189 242.817L430.431 247.059ZM432.076 244.95C432.386 244.467 432.783 243.788 432.969 243.044L427.148 241.588C427.171 241.497 427.193 241.437 427.202 241.416C427.211 241.393 427.213 241.39 427.202 241.411C427.192 241.432 427.174 241.467 427.144 241.518C427.114 241.569 427.076 241.631 427.029 241.706L432.076 244.95ZM432.844 243.43L433.028 242.97L427.457 240.742L427.273 241.202L432.844 243.43ZM433.184 242.444C433.214 242.293 433.232 242.209 433.24 242.173C433.248 242.136 433.237 242.192 433.213 242.275C433.206 242.299 433.188 242.362 433.16 242.441C433.146 242.481 433.12 242.551 433.083 242.636C433.056 242.698 432.974 242.885 432.829 243.103C432.758 243.209 432.61 243.418 432.374 243.636C432.17 243.826 431.649 244.26 430.826 244.397C429.822 244.564 428.923 244.205 428.327 243.668C427.84 243.23 427.627 242.75 427.548 242.552C427.384 242.141 427.354 241.791 427.348 241.724C427.335 241.595 427.334 241.493 427.334 241.442H433.334C433.334 241.389 433.333 241.285 433.321 241.155C433.314 241.087 433.284 240.736 433.119 240.324C433.04 240.126 432.827 239.646 432.341 239.208C431.744 238.671 430.845 238.311 429.84 238.479C429.017 238.616 428.496 239.05 428.292 239.24C428.056 239.458 427.908 239.667 427.837 239.774C427.691 239.992 427.608 240.18 427.581 240.244C427.543 240.331 427.517 240.402 427.502 240.444C427.472 240.528 427.453 240.595 427.444 240.626C427.412 240.736 427.389 240.84 427.383 240.872C427.36 240.974 427.331 241.112 427.3 241.268L433.184 242.444ZM433.311 241.814C433.357 241.446 433.38 241.077 433.38 240.706H427.38C427.38 240.826 427.373 240.947 427.357 241.07L433.311 241.814ZM433.362 241.037C433.405 240.652 433.426 240.265 433.426 239.878H427.426C427.426 240.043 427.417 240.208 427.398 240.375L433.362 241.037ZM433.426 239.878C433.426 239.199 433.362 238.523 433.237 237.853L427.339 238.959C427.398 239.27 427.426 239.576 427.426 239.878H433.426ZM433.237 237.853C433.067 236.949 432.711 236.085 432.136 235.318L427.336 238.918C427.333 238.914 427.33 238.909 427.327 238.905C427.325 238.9 427.324 238.898 427.324 238.898C427.324 238.898 427.326 238.902 427.328 238.912C427.331 238.921 427.335 238.936 427.339 238.959L433.237 237.853ZM432.203 235.41C431.577 234.507 430.734 233.863 429.789 233.45L427.384 238.946C427.41 238.958 427.399 238.957 427.368 238.932C427.335 238.905 427.299 238.869 427.27 238.826L432.203 235.41ZM429.998 233.551C428.947 232.99 427.79 232.83 426.746 232.83V238.83C426.974 238.83 427.117 238.849 427.193 238.864C427.267 238.879 427.249 238.885 427.174 238.845L429.998 233.551ZM426.746 232.83H423.02V238.83H426.746V232.83ZM423.02 232.83C421.969 232.83 420.989 233.124 420.126 233.533L422.694 238.955C422.996 238.812 423.09 238.83 423.02 238.83V232.83ZM420.192 233.503C419.386 233.861 418.627 234.332 417.912 234.888L421.596 239.624C421.985 239.321 422.33 239.118 422.629 238.985L420.192 233.503ZM417.912 234.888C417.208 235.436 416.554 236.054 415.948 236.735L420.432 240.721C420.808 240.298 421.196 239.935 421.596 239.624L417.912 234.888ZM415.941 236.743C415.351 237.411 414.839 238.125 414.435 238.888L419.737 241.696C419.885 241.416 420.109 241.088 420.44 240.713L415.941 236.743ZM414.317 239.138C414.148 239.544 413.993 239.94 413.853 240.325L419.491 242.375C419.597 242.086 419.718 241.776 419.855 241.446L414.317 239.138ZM413.887 240.236C413.698 240.706 413.536 241.237 413.465 241.806L419.419 242.55C419.414 242.594 419.408 242.608 419.413 242.59C419.418 242.572 419.431 242.531 419.458 242.464L413.887 240.236ZM447.754 247.514L445.155 246.017L444.754 246.712V247.514H447.754ZM466.89 247.836L469.29 249.636L472.89 244.836H466.89V247.836ZM466.338 248.572L468.681 250.446L468.71 250.409L468.738 250.372L466.338 248.572ZM464.958 250.228L462.681 248.276L462.653 248.308L462.627 248.34L464.958 250.228ZM463.256 252.252L460.993 250.283L460.968 250.312L460.944 250.341L463.256 252.252ZM461.646 254V257H462.833L463.698 256.189L461.646 254ZM438.738 253.172L436.263 254.866L436.314 254.942L436.37 255.014L438.738 253.172ZM438.6 248.618L435.775 247.609L435.775 247.609L438.6 248.618ZM439.888 246.134L437.462 244.369L437.442 244.398L437.422 244.426L439.888 246.134ZM441.958 243.88L439.914 241.684L439.914 241.684L441.958 243.88ZM444.81 241.58L446.526 244.041L446.551 244.024L446.575 244.006L444.81 241.58ZM447.892 239.786L449.103 242.531L449.137 242.516L449.17 242.5L447.892 239.786ZM459.99 238.82L461.144 241.589L461.24 241.549L461.332 241.503L459.99 238.82ZM460.864 238.36L459.523 235.677L459.448 235.714L459.376 235.755L460.864 238.36ZM461.324 238.13L462.666 240.813L462.833 240.73L462.989 240.626L461.324 238.13ZM461.6 237.9L459.258 236.026L458.6 236.848V237.9H461.6ZM461.784 237.67L459.663 235.549L459.546 235.666L459.442 235.796L461.784 237.67ZM443.522 235.876L440.978 234.286L438.11 238.876H443.522V235.876ZM444.626 234.312L442.272 232.453L442.265 232.462L442.258 232.47L444.626 234.312ZM446.052 232.61L443.871 230.55L443.84 230.583L443.81 230.617L446.052 232.61ZM447.57 231.046L449.692 233.167L449.724 233.135L449.755 233.102L447.57 231.046ZM448.95 229.62V226.62H447.708L446.829 227.499L448.95 229.62ZM471.352 230.632L468.821 232.243L468.847 232.283L468.874 232.322L471.352 230.632ZM471.628 235.554L468.782 234.605L468.771 234.638L468.761 234.672L471.628 235.554ZM470.524 237.808L472.959 239.561L472.973 239.541L472.987 239.521L470.524 237.808ZM468.316 240.246L470.361 242.442L470.363 242.439L468.316 240.246ZM465.372 242.592L467.053 245.077L467.061 245.072L467.069 245.066L465.372 242.592ZM462.152 244.34L460.999 241.571L460.985 241.577L460.971 241.583L462.152 244.34ZM449.272 245.352L451.072 247.752L451.163 247.684L451.248 247.61L449.272 245.352ZM448.628 245.996L446.228 244.196L446.119 244.341L446.029 244.499L448.628 245.996ZM444.754 247.514C444.754 248.556 445.247 249.635 446.27 250.286C447.064 250.791 447.87 250.836 448.26 250.836V244.836C448.313 244.836 448.867 244.827 449.492 245.225C449.847 245.45 450.197 245.793 450.444 246.263C450.685 246.724 450.754 247.17 450.754 247.514H444.754ZM448.26 250.836H466.89V244.836H448.26V250.836ZM466.89 247.836C464.49 246.036 464.49 246.036 464.49 246.036C464.49 246.036 464.49 246.036 464.49 246.036C464.49 246.036 464.49 246.036 464.49 246.036C464.49 246.036 464.49 246.036 464.49 246.036C464.49 246.036 464.49 246.036 464.49 246.036C464.49 246.036 464.49 246.036 464.49 246.036C464.49 246.037 464.49 246.036 464.49 246.037C464.487 246.041 464.492 246.034 464.488 246.039C464.467 246.067 464.505 246.017 464.482 246.047C464.392 246.168 464.552 245.954 464.456 246.082C464.349 246.225 464.526 245.989 464.413 246.139C464.34 246.236 464.459 246.078 464.385 246.177C464.264 246.338 464.475 246.057 464.352 246.22C464.291 246.302 464.379 246.185 464.316 246.269C464.221 246.396 464.371 246.195 464.275 246.323C464.175 246.456 464.33 246.249 464.23 246.384C464.192 246.434 464.243 246.366 464.205 246.416C464.128 246.519 464.257 246.347 464.18 246.45C464.132 246.514 464.121 246.528 464.068 246.599C464.001 246.689 464.074 246.592 464.005 246.683C464.005 246.684 464.004 246.685 464.003 246.686C464.003 246.686 464.002 246.687 464.001 246.688C464.001 246.689 464 246.69 463.999 246.691C463.999 246.692 463.998 246.693 463.997 246.694C463.981 246.715 464.009 246.677 463.993 246.699C463.992 246.7 463.992 246.701 463.991 246.702C463.99 246.703 463.99 246.704 463.989 246.705C463.956 246.748 464.014 246.672 463.981 246.716C463.98 246.717 463.979 246.717 463.979 246.718C463.978 246.719 463.977 246.72 463.977 246.721C463.976 246.722 463.975 246.723 463.975 246.724C463.974 246.725 463.973 246.726 463.972 246.727C463.897 246.827 464.014 246.671 463.938 246.772L468.738 250.372C468.754 250.351 468.727 250.387 468.743 250.366C468.763 250.339 468.727 250.388 468.747 250.361C468.783 250.312 468.719 250.397 468.756 250.349C468.808 250.28 468.72 250.396 468.772 250.327C468.795 250.297 468.767 250.334 468.789 250.305C468.922 250.127 468.672 250.461 468.805 250.283C468.948 250.093 468.695 250.43 468.837 250.24C468.881 250.183 468.809 250.278 468.853 250.22C468.969 250.065 468.752 250.354 468.868 250.2C468.908 250.146 468.835 250.243 468.875 250.189C468.916 250.136 468.842 250.233 468.883 250.18C468.94 250.103 468.84 250.237 468.897 250.16C469.032 249.981 468.792 250.301 468.926 250.122C468.954 250.085 468.926 250.122 468.954 250.085C468.967 250.067 468.954 250.085 468.967 250.067C468.967 250.067 468.968 250.066 468.969 250.065C468.969 250.065 468.97 250.064 468.97 250.063C468.974 250.058 468.97 250.064 468.973 250.059C468.979 250.051 468.971 250.062 468.977 250.054C469.005 250.016 468.951 250.088 468.98 250.05C468.987 250.04 468.986 250.042 468.993 250.033C469.018 249.999 468.974 250.058 468.999 250.025C469.049 249.957 468.955 250.083 469.005 250.016C469.121 249.862 468.902 250.154 469.018 250C469.039 249.972 469.008 250.012 469.03 249.984C469.09 249.903 469.015 250.003 469.075 249.924C469.232 249.713 469.001 250.022 469.152 249.82C469.275 249.656 469.096 249.895 469.213 249.74C469.218 249.732 469.22 249.73 469.225 249.723C469.232 249.714 469.22 249.73 469.227 249.721C469.227 249.721 469.227 249.72 469.227 249.72C469.228 249.72 469.228 249.719 469.228 249.719C469.228 249.719 469.229 249.718 469.229 249.718C469.229 249.718 469.229 249.717 469.23 249.717C469.239 249.704 469.221 249.728 469.231 249.715C469.259 249.678 469.209 249.745 469.237 249.708C469.246 249.695 469.238 249.707 469.247 249.694C469.287 249.64 469.216 249.736 469.256 249.682C469.279 249.651 469.249 249.691 469.271 249.662C469.278 249.653 469.266 249.669 469.273 249.66C469.274 249.658 469.272 249.661 469.273 249.659C469.274 249.659 469.274 249.658 469.274 249.658C469.274 249.658 469.274 249.658 469.274 249.658C469.274 249.658 469.274 249.657 469.275 249.657C469.275 249.657 469.275 249.657 469.275 249.657C469.281 249.649 469.27 249.664 469.276 249.656C469.282 249.647 469.27 249.663 469.277 249.654C469.281 249.648 469.275 249.656 469.28 249.651C469.28 249.65 469.28 249.65 469.281 249.649C469.283 249.646 469.279 249.652 469.281 249.648C469.281 249.648 469.281 249.648 469.282 249.648C469.282 249.648 469.282 249.648 469.282 249.648C469.283 249.646 469.281 249.648 469.283 249.646C469.287 249.64 469.28 249.65 469.284 249.645C469.286 249.642 469.282 249.647 469.284 249.644C469.284 249.644 469.284 249.644 469.285 249.644C469.285 249.644 469.285 249.644 469.285 249.644C469.286 249.642 469.284 249.645 469.285 249.643C469.285 249.643 469.286 249.643 469.286 249.642C469.289 249.638 469.285 249.643 469.288 249.639C469.288 249.639 469.288 249.639 469.288 249.639C469.288 249.639 469.289 249.639 469.289 249.639C469.289 249.638 469.289 249.638 469.289 249.638C469.289 249.638 469.289 249.638 469.289 249.638C469.291 249.636 469.287 249.64 469.289 249.638C469.29 249.636 469.289 249.638 469.29 249.637C469.29 249.637 469.29 249.637 469.29 249.637C469.29 249.637 469.29 249.637 469.29 249.637C469.29 249.637 469.29 249.637 469.29 249.637C469.291 249.636 469.289 249.638 469.29 249.636C469.291 249.635 469.29 249.637 469.29 249.636C469.29 249.636 469.29 249.636 469.29 249.636C469.29 249.636 469.29 249.636 469.29 249.636C469.29 249.636 469.29 249.636 469.29 249.636C469.29 249.636 469.29 249.636 469.29 249.636C469.29 249.636 469.29 249.636 466.89 247.836ZM463.996 246.698C463.656 247.123 463.219 247.647 462.681 248.276L467.236 252.18C467.802 251.521 468.285 250.941 468.681 250.446L463.996 246.698ZM462.627 248.34C462.13 248.954 461.586 249.601 460.993 250.283L465.52 254.221C466.154 253.492 466.744 252.79 467.29 252.116L462.627 248.34ZM460.944 250.341C460.415 250.981 459.966 251.463 459.595 251.811L463.698 256.189C464.308 255.617 464.932 254.934 465.569 254.163L460.944 250.341ZM461.646 251H440.716V257H461.646V251ZM440.716 251C440.576 251 440.598 250.978 440.713 251.026C440.772 251.05 440.845 251.089 440.92 251.146C440.995 251.204 441.058 251.268 441.107 251.33L436.37 255.014C437.518 256.49 439.177 257 440.716 257V251ZM441.214 251.478C441.213 251.476 441.14 251.386 441.14 251.056H435.14C435.14 252.382 435.467 253.703 436.263 254.866L441.214 251.478ZM441.14 251.056C441.14 250.691 441.213 250.222 441.426 249.627L435.775 247.609C435.374 248.732 435.14 249.887 435.14 251.056H441.14ZM441.426 249.627C441.638 249.031 441.943 248.437 442.355 247.842L437.422 244.426C436.73 245.426 436.176 246.488 435.775 247.609L441.426 249.627ZM442.315 247.899C442.654 247.432 443.197 246.826 444.003 246.076L439.914 241.684C438.942 242.59 438.105 243.486 437.462 244.369L442.315 247.899ZM444.003 246.076C444.787 245.345 445.628 244.667 446.526 244.041L443.095 239.119C441.969 239.904 440.908 240.759 439.914 241.684L444.003 246.076ZM446.575 244.006C447.431 243.384 448.274 242.897 449.103 242.531L446.682 237.041C445.426 237.595 444.214 238.304 443.046 239.154L446.575 244.006ZM449.17 242.5C449.977 242.12 450.448 242.05 450.652 242.05V236.05C449.262 236.05 447.893 236.47 446.615 237.072L449.17 242.5ZM450.652 242.05H459.392V236.05H450.652V242.05ZM459.392 242.05C459.827 242.05 460.174 241.948 460.175 241.948C460.272 241.922 460.352 241.896 460.396 241.882C460.488 241.851 460.576 241.818 460.642 241.793C460.781 241.739 460.953 241.669 461.144 241.589L458.837 236.051C458.66 236.124 458.549 236.169 458.488 236.192C458.454 236.206 458.464 236.201 458.498 236.19C458.513 236.185 458.569 236.166 458.648 236.145C458.688 236.135 458.761 236.117 458.854 236.099C458.902 236.09 458.969 236.079 459.049 236.07C459.126 236.061 459.245 236.05 459.392 236.05V242.05ZM461.332 241.503C461.722 241.308 462.069 241.127 462.353 240.965L459.376 235.755C459.231 235.838 458.995 235.964 458.649 236.137L461.332 241.503ZM462.206 241.043C462.329 240.982 462.482 240.905 462.666 240.813L459.983 235.447C459.799 235.539 459.645 235.615 459.523 235.677L462.206 241.043ZM462.989 240.626C463.109 240.546 463.282 240.427 463.452 240.285C463.528 240.221 463.691 240.082 463.861 239.884C463.946 239.785 464.092 239.603 464.23 239.35C464.35 239.13 464.6 238.612 464.6 237.9H458.6C458.6 237.196 458.848 236.686 458.962 236.477C459.095 236.234 459.232 236.065 459.305 235.979C459.452 235.808 459.58 235.701 459.611 235.676C459.689 235.611 459.724 235.591 459.66 235.634L462.989 240.626ZM463.943 239.774L464.127 239.544L459.442 235.796L459.258 236.026L463.943 239.774ZM463.906 239.791C464.886 238.811 465.244 237.573 465.244 236.428H459.244C459.244 236.396 459.249 236.268 459.316 236.088C459.387 235.897 459.505 235.707 459.663 235.549L463.906 239.791ZM465.244 236.428C465.244 235.956 465.171 235.054 464.541 234.214C463.789 233.212 462.7 232.876 461.83 232.876V238.876C461.236 238.876 460.355 238.632 459.741 237.814C459.249 237.158 459.244 236.532 459.244 236.428H465.244ZM461.83 232.876H443.522V238.876H461.83V232.876ZM446.066 237.466C446.309 237.078 446.616 236.641 446.995 236.154L442.258 232.47C441.779 233.087 441.349 233.693 440.978 234.286L446.066 237.466ZM446.981 236.171C447.405 235.634 447.843 235.111 448.295 234.603L443.81 230.617C443.281 231.213 442.768 231.825 442.272 232.453L446.981 236.171ZM448.233 234.67C448.737 234.137 449.223 233.636 449.692 233.167L445.449 228.925C444.936 229.437 444.411 229.979 443.871 230.55L448.233 234.67ZM449.755 233.102C450.229 232.599 450.667 232.146 451.072 231.741L446.829 227.499C446.375 227.953 445.894 228.45 445.386 228.99L449.755 233.102ZM448.95 232.62H469.282V226.62H448.95V232.62ZM469.282 232.62C469.407 232.62 469.346 232.642 469.195 232.568C469.12 232.531 469.042 232.48 468.97 232.415C468.898 232.35 468.85 232.288 468.821 232.243L473.883 229.021C472.793 227.307 471.034 226.62 469.282 226.62V232.62ZM468.874 232.322C468.931 232.405 469.042 232.614 469.042 233.116H475.042C475.042 231.655 474.694 230.208 473.831 228.942L468.874 232.322ZM469.042 233.116C469.042 233.562 468.966 234.054 468.782 234.605L474.475 236.503C474.843 235.398 475.042 234.265 475.042 233.116H469.042ZM468.761 234.672C468.61 235.164 468.381 235.636 468.062 236.095L472.987 239.521C473.649 238.569 474.157 237.539 474.496 236.436L468.761 234.672ZM468.09 236.055C467.683 236.62 467.09 237.287 466.27 238.053L470.363 242.439C471.383 241.488 472.262 240.529 472.959 239.561L468.09 236.055ZM466.272 238.05C465.499 238.77 464.635 239.46 463.676 240.118L467.069 245.066C468.256 244.252 469.355 243.378 470.361 242.442L466.272 238.05ZM463.692 240.107C462.806 240.706 461.908 241.192 460.999 241.571L463.306 247.109C464.604 246.568 465.854 245.888 467.053 245.077L463.692 240.107ZM460.971 241.583C460.16 241.93 459.586 242.03 459.208 242.03V248.03C460.61 248.03 461.999 247.67 463.334 247.097L460.971 241.583ZM459.208 242.03H450.008V248.03H459.208V242.03ZM450.008 242.03C448.826 242.03 447.907 242.561 447.297 243.094L451.248 247.61C451.129 247.714 450.7 248.03 450.008 248.03V242.03ZM447.472 242.952C447 243.307 446.583 243.723 446.228 244.196L451.028 247.796C451.042 247.778 451.055 247.765 451.072 247.752L447.472 242.952ZM446.029 244.499L445.155 246.017L450.354 249.011L451.228 247.493L446.029 244.499ZM494.773 254V257H496.873L497.591 255.027L494.773 254ZM485.941 254L483.121 252.974L481.656 257H485.941V254ZM490.863 240.476L493.682 241.502L488.731 238.365L490.863 240.476ZM486.125 245.26V248.26H487.376L488.256 247.371L486.125 245.26ZM470.439 245.26L467.62 244.232L466.151 248.26H470.439V245.26ZM476.143 229.62V226.62H474.043L473.324 228.592L476.143 229.62ZM484.883 229.62L487.7 230.651L489.175 226.62H484.883V229.62ZM481.433 239.05L478.615 238.019L477.141 242.05H481.433V239.05ZM491.369 239.05V242.05H493.465L494.186 240.081L491.369 239.05ZM494.819 229.62V226.62H492.722L492.001 228.589L494.819 229.62ZM503.651 229.62L506.469 230.647L507.936 226.62H503.651V229.62ZM494.773 251H485.941V257H494.773V251ZM488.76 255.026L493.682 241.502L488.043 239.45L483.121 252.974L488.76 255.026ZM488.731 238.365L483.993 243.149L488.256 247.371L492.994 242.587L488.731 238.365ZM486.125 242.26H470.439V248.26H486.125V242.26ZM473.257 246.288L478.961 230.648L473.324 228.592L467.62 244.232L473.257 246.288ZM476.143 232.62H484.883V226.62H476.143V232.62ZM482.065 228.589L478.615 238.019L484.25 240.081L487.7 230.651L482.065 228.589ZM481.433 242.05H491.369V236.05H481.433V242.05ZM494.186 240.081L497.636 230.651L492.001 228.589L488.551 238.019L494.186 240.081ZM494.819 232.62H503.651V226.62H494.819V232.62ZM500.832 228.593L491.954 252.973L497.591 255.027L506.469 230.647L500.832 228.593Z" fill="white" mask="url(#path-34-outside-1_124_11)"/>
<defs>
<linearGradient id="paint0_linear_124_11" x1="66.5509" y1="133.513" x2="195.711" y2="133.513" gradientUnits="userSpaceOnUse">
<stop stop-color="#F37223"/>
<stop offset="1" stop-color="#FF003F"/>
</linearGradient>
<linearGradient id="paint1_linear_124_11" x1="35.2646" y1="124.162" x2="65.4652" y2="124.162" gradientUnits="userSpaceOnUse">
<stop stop-color="#ED1C24"/>
<stop offset="1" stop-color="#BE1E2D"/>
</linearGradient>
<linearGradient id="paint2_linear_124_11" x1="243" y1="159" x2="493.5" y2="214.5" gradientUnits="userSpaceOnUse">
<stop stop-color="#026FBE"/>
<stop offset="1" stop-color="#269BEF"/>
</linearGradient>
<linearGradient id="paint3_linear_124_11" x1="243" y1="159" x2="493.5" y2="214.5" gradientUnits="userSpaceOnUse">
<stop stop-color="#026FBE"/>
<stop offset="1" stop-color="#269BEF"/>
</linearGradient>
<linearGradient id="paint4_linear_124_11" x1="243" y1="159" x2="493.5" y2="214.5" gradientUnits="userSpaceOnUse">
<stop stop-color="#026FBE"/>
<stop offset="1" stop-color="#269BEF"/>
</linearGradient>
<clipPath id="clip0_124_11">
<rect width="284" height="367" fill="white" transform="translate(-40 -39)"/>
</clipPath>
</defs>
</svg>
